<svg width="111" height="33" viewBox="0 0 111 33" fill="none" xmlns="http://www.w3.org/2000/svg">
<path fill-rule="evenodd" clip-rule="evenodd" d="M36.2329 17.6861L32.3036 12.277C32.1112 12.0156 31.9746 11.6982 31.9746 11.306C31.9746 10.584 32.5643 10.0051 33.3154 10.0051C33.9237 10.0051 34.3086 10.3412 34.6376 10.833L37.5923 15.1528L40.6028 10.8018C40.9318 10.3101 41.3353 9.99266 41.8878 9.99266C42.7071 9.99266 43.1913 10.5715 43.1913 11.3123C43.1913 11.6795 43.0175 12.0156 42.8437 12.2646L38.9144 17.6363V21.1967C38.9144 21.9561 38.3247 22.5537 37.5736 22.5537C36.8226 22.5537 36.2329 21.9561 36.2329 21.1967V17.6861ZM45.3639 21.0909V11.4679C45.3639 10.7085 45.9536 10.1109 46.7047 10.1109H53.452C54.1162 10.1109 54.6501 10.6587 54.6501 11.3247C54.6501 11.9969 54.11 12.5198 53.452 12.5198H48.0268V15.022H52.6699C53.3341 15.022 53.8679 15.5698 53.8679 16.2358C53.8679 16.9081 53.3279 17.4372 52.6699 17.4372H48.0268V20.0265H53.5389C54.1969 20.0265 54.737 20.5743 54.737 21.2403C54.737 21.9126 54.1969 22.4416 53.5389 22.4416H46.6985C45.9536 22.4479 45.3639 21.8441 45.3639 21.0909ZM57.5489 11.362C57.5489 10.6027 58.1386 10.0051 58.8897 10.0051C59.6346 10.0051 60.2305 10.6027 60.2305 11.362V19.9767H65.1901C65.8667 19.9767 66.4068 20.5245 66.4068 21.2092C66.4068 21.8939 65.8667 22.4416 65.1901 22.4416H58.8897C58.1386 22.4416 57.5489 21.8441 57.5489 21.0847V11.362ZM68.6166 11.362C68.6166 10.6027 69.2063 10.0051 69.9574 10.0051C70.7085 10.0051 71.2982 10.6027 71.2982 11.362V19.9767H76.2579C76.9345 19.9767 77.4745 20.5245 77.4745 21.2092C77.4745 21.8939 76.9345 22.4416 76.2579 22.4416H69.9574C69.2063 22.4416 68.6166 21.8441 68.6166 21.0847V11.362ZM88.7657 16.3105V16.2732C88.7657 14.1568 87.2325 12.3953 85.0785 12.3953C82.9183 12.3953 81.4224 14.1195 81.4224 16.2358V16.2732C81.4224 18.3895 82.9556 20.151 85.1095 20.151C87.2697 20.1573 88.7657 18.4268 88.7657 16.3105ZM78.6229 16.3105V16.2732C78.6229 12.7688 81.3541 9.89307 85.1095 9.89307C88.865 9.89307 91.5652 12.7314 91.5652 16.2358V16.2732C91.5652 19.7776 88.834 22.6533 85.0785 22.6533C81.3231 22.6595 78.6229 19.8211 78.6229 16.3105ZM93.1853 11.8351C93.1356 11.6733 93.0798 11.4803 93.0798 11.3247C93.0798 10.5653 93.7067 10.0051 94.4516 10.0051C95.0786 10.0051 95.5813 10.4097 95.7551 10.9761L98.176 18.5327L100.609 11.0446C100.82 10.4097 101.286 9.96776 101.969 9.96776H102.18C102.856 9.96776 103.328 10.391 103.539 11.0446L105.972 18.5327L108.393 10.9761C108.567 10.447 109.02 10.0051 109.678 10.0051C110.411 10.0051 111 10.5715 111 11.3123C111 11.4679 110.951 11.6795 110.895 11.8413L107.487 21.5329C107.245 22.2176 106.736 22.6408 106.097 22.6408H105.817C105.172 22.6408 104.688 22.2362 104.445 21.5329L102.043 14.4681L99.641 21.5329C99.3989 22.2362 98.9085 22.6408 98.2691 22.6408H97.9898C97.3442 22.6408 96.8414 22.2176 96.5993 21.5329L93.1853 11.8351Z" fill="#C0C0C0"/>
<mask id="mask0" mask-type="alpha" maskUnits="userSpaceOnUse" x="0" y="0" width="26" height="33">
<path fill-rule="evenodd" clip-rule="evenodd" d="M0 0.480469H25.835V32.076H0V0.480469Z" fill="#C0C0C0"/>
</mask>
<g mask="url(#mask0)">
<path fill-rule="evenodd" clip-rule="evenodd" d="M22.9256 5.35418L11.2806 28.5093C10.9267 29.2127 10.0763 29.4928 9.3811 29.1318C8.68588 28.7707 8.41275 27.9117 8.76657 27.2084L13.0993 18.5812C13.4345 17.9152 13.6393 17.1869 13.7076 16.44C14.2663 15.942 14.7194 15.3445 15.0546 14.6909L20.4116 4.05948C20.7654 3.35612 21.6158 3.07601 22.311 3.43703C23.0062 3.78561 23.2794 4.65081 22.9256 5.35418ZM6.94161 13.3962L2.90683 5.35418C2.55301 4.65081 2.83234 3.78561 3.52756 3.43081C4.22279 3.07601 5.07319 3.35612 5.42701 4.05326L10.6412 14.3984C10.7343 14.5851 10.8088 14.7718 10.8647 14.9648C9.37489 15.5126 7.68028 14.859 6.94161 13.3962ZM23.5587 0.941011C21.5103 -0.117154 19.0025 0.710704 17.9597 2.78346L12.9193 12.7862L7.87892 2.78969C6.83608 0.710704 4.32831 -0.110929 2.27988 0.947235C0.231456 2.0054 -0.581708 4.54499 0.461128 6.62398L4.50212 14.6598C5.63806 16.9193 7.99686 18.1393 10.3494 17.9152L6.31467 25.9448C5.27183 28.0176 6.08499 30.5634 8.13342 31.6215C10.1819 32.6797 12.6896 31.8519 13.7325 29.7791L25.3775 6.61775C26.4265 4.54499 25.6071 1.99917 23.5587 0.941011Z" fill="#C0C0C0"/>
</g>
<mask id="mask1" mask-type="alpha" maskUnits="userSpaceOnUse" x="0" y="5" width="11" height="13">
<path fill-rule="evenodd" clip-rule="evenodd" d="M10.3405 17.9098C7.98787 18.1339 5.63529 16.9139 4.49313 14.6544L0.452148 6.61856L2.90405 5.35498L6.93883 13.4033C7.67751 14.866 9.37211 15.5134 10.8557 14.9656C11.0915 15.7873 10.986 16.6587 10.6012 17.3932" fill="#C0C0C0"/>
</mask>
<g mask="url(#mask1)">
<path fill-rule="evenodd" clip-rule="evenodd" d="M10.3405 17.9098L10.6012 17.3869C10.986 16.6587 11.0915 15.7872 10.8557 14.9594C9.37211 15.5071 7.67751 14.8598 6.93883 13.397L2.90405 5.35498L0.452148 6.61855L4.49313 14.6544C5.63529 16.9201 7.99408 18.1339 10.3405 17.9098Z" fill="#C0C0C0"/>
</g>
<mask id="mask2" mask-type="alpha" maskUnits="userSpaceOnUse" x="12" y="2" width="9" height="15">
<path fill-rule="evenodd" clip-rule="evenodd" d="M17.9534 2.78809L20.4054 4.05166L15.0546 14.6831C14.7194 15.3367 14.2663 15.9342 13.7076 16.4322C13.8132 15.3305 13.6207 14.1914 13.0869 13.1332L12.9131 12.7846L17.9534 2.78809Z" fill="#C0C0C0"/>
</mask>
<g mask="url(#mask2)">
<path fill-rule="evenodd" clip-rule="evenodd" d="M17.9535 2.78809L12.9131 12.7846L13.0869 13.1332C13.6207 14.1914 13.8069 15.3305 13.7076 16.4322C14.2663 15.9342 14.7194 15.3367 15.0546 14.6831L20.4116 4.05166L17.9535 2.78809Z" fill="#C0C0C0"/>
</g>
</svg>
