<svg width="180" height="17" viewBox="0 0 180 17" fill="none" xmlns="http://www.w3.org/2000/svg">
<rect width="179.68" height="16.8218" transform="translate(0.0644531)" fill="white"/>
<path d="M52.8156 0.0428163H55.3451V16.5255H52.8156V0.0428163ZM45.9444 4.32708H48.4643V16.5207H45.9444V4.32708ZM48.5169 2.68406H45.887V0.0141602H48.5169V2.68406ZM35.4343 4.32708H42.8554V5.86024L37.7199 14.615H42.908V16.5207H34.9992V14.615L39.953 6.23756H35.4295V4.32708H35.4343ZM29.3951 10.5839C29.0747 10.5505 28.8309 10.5362 28.6587 10.5362C26.4687 10.5362 25.3737 11.3959 25.3737 13.1105C25.3737 14.3571 25.914 14.9828 27.0043 14.9828C27.6402 14.9828 28.1997 14.6437 28.6778 13.9702C29.156 13.2968 29.3951 12.3607 29.3951 11.1809V10.5839V10.5839ZM25.608 7.78028L23.1789 7.47937C23.3415 6.3904 23.8436 5.54501 24.6852 4.93843C25.5267 4.33663 26.5596 4.03573 27.7837 4.03573C28.8787 4.03573 29.7537 4.25543 30.4136 4.69007C31.0687 5.12948 31.4847 5.65009 31.652 6.25666C31.8242 6.85847 31.9102 7.7755 31.9102 8.99821V13.1535C31.9102 14.8347 31.982 15.9572 32.1206 16.5207H29.7394C29.6342 16.0813 29.5816 15.4031 29.5816 14.4956C28.8213 16.0479 27.6737 16.8216 26.1483 16.8216C25.1155 16.8216 24.2883 16.5112 23.6667 15.876C23.0451 15.2455 22.7295 14.381 22.7295 13.3016C22.7295 11.9738 23.1885 10.923 24.097 10.1493C25.0103 9.38031 26.5978 8.99344 28.8548 8.99344C28.9695 8.99344 29.1464 8.99821 29.3855 9.00777V8.51104C29.3855 7.64177 29.2516 6.98743 28.9934 6.54324C28.7304 6.10383 28.2618 5.87935 27.5876 5.87935C26.4878 5.87457 25.828 6.50503 25.608 7.78028ZM14.8445 4.32708H17.068V7.05429C17.7422 5.06739 18.7655 4.06916 20.1187 4.06916C20.2478 4.06916 20.4008 4.08349 20.5777 4.1026V6.72474C20.3673 6.70086 20.1952 6.68653 20.0709 6.68653C18.273 6.68653 17.374 7.89491 17.374 10.3069V16.516H14.8445V4.32708V4.32708ZM2.73261 14.338H4.93217C6.95003 14.338 7.95417 13.4496 7.95417 11.6681C7.95417 10.9756 7.739 10.3547 7.31343 9.81017C6.88308 9.2609 6.01282 8.98866 4.70265 8.98866H2.73261V14.338ZM2.73261 6.8728H4.46357C5.67811 6.8728 6.48143 6.65309 6.86874 6.20891C7.25605 5.75994 7.4521 5.18202 7.4521 4.47037C7.4521 3.64408 7.22736 3.04705 6.78745 2.69361C6.34276 2.3354 5.65898 2.15867 4.73612 2.15867H2.7374V6.8728H2.73261ZM0.0644531 0.0428163H5.05649C6.30929 0.0428163 7.26562 0.143119 7.9207 0.34372C8.57579 0.544321 9.12568 0.993281 9.57515 1.69061C10.0294 2.38793 10.2541 3.23332 10.2541 4.23633C10.2541 6.06084 9.4317 7.26445 7.80116 7.84714C9.7712 8.46327 10.7658 9.8436 10.7658 11.9833C10.7658 13.2013 10.3737 14.2616 9.59906 15.1643C8.81965 16.0718 7.33256 16.5255 5.12822 16.5255H0.0644531V0.0428163Z" fill="#C0C0C0"/>
<path d="M179.744 16.4875H178.071V8.65449C178.071 7.70403 177.908 6.99237 177.583 6.51475C177.382 6.23773 177.115 6.01325 176.775 5.85086C176.436 5.68369 176.072 5.60249 175.68 5.60249C174.714 5.60249 173.916 6.0419 173.275 6.93028C172.735 7.6897 172.467 8.64494 172.467 9.80078V16.4923H170.678V4.29859H172.342V6.54341C172.883 5.60727 173.433 4.94815 173.987 4.5565C174.547 4.16485 175.221 3.9738 176.01 3.9738C176.909 3.9738 177.679 4.24605 178.324 4.79531C178.893 5.26816 179.276 5.81742 179.462 6.43833C179.654 7.05446 179.744 8.05746 179.744 9.44256V16.4875ZM161.397 5.53563C160.933 5.53563 160.484 5.65503 160.054 5.89862C159.619 6.13743 159.274 6.46221 159.016 6.86341C158.485 7.66582 158.217 8.82643 158.217 10.3309C158.217 11.8259 158.466 12.9961 158.963 13.8415C159.212 14.2713 159.561 14.6057 160.011 14.8636C160.455 15.1167 160.933 15.2409 161.426 15.2409C162.425 15.2409 163.214 14.811 163.783 13.9561C164.357 13.0964 164.639 11.9214 164.639 10.4121C164.639 8.84076 164.367 7.65626 163.822 6.86341C163.214 5.99414 162.411 5.54996 161.397 5.53563ZM161.455 3.96425C162.588 3.96425 163.578 4.29381 164.419 4.95293C165.122 5.51175 165.658 6.26638 166.035 7.2264C166.413 8.1912 166.6 9.28018 166.6 10.5077C166.6 12.1077 166.189 13.488 165.38 14.6486C164.381 16.0863 163.013 16.8075 161.287 16.8075C159.619 16.8075 158.323 16.1054 157.414 14.6964C156.649 13.4976 156.262 12.0456 156.262 10.3405C156.262 8.54464 156.683 7.09267 157.524 5.97981C158.524 4.67113 159.834 3.99768 161.455 3.96425ZM152.236 2.12064H150.309V0.00477359H152.236V2.12064ZM152.178 16.4875H150.39V4.26993H152.178V16.4875ZM147.019 15.1836V16.6785C146.326 16.7741 145.761 16.8218 145.317 16.8218C143.127 16.8218 142.032 15.5848 142.032 13.1155V5.77444H139.995V4.29381H142.032L142.113 1.22748L143.772 1.06987V4.29381H146.354V5.77444H143.772V13.4307C143.772 14.6868 144.389 15.3173 145.623 15.3173C146.015 15.3173 146.479 15.2695 147.019 15.1836ZM135.089 10.3835C134.367 10.3405 133.855 10.3118 133.559 10.3118C131.765 10.3118 130.474 10.6701 129.681 11.3865C129.188 11.8259 128.944 12.4229 128.944 13.1632C128.944 13.7555 129.145 14.257 129.537 14.6725C129.963 15.1119 130.575 15.3364 131.373 15.3364C132.554 15.3364 133.496 14.8779 134.204 13.9465C134.811 13.1441 135.113 12.2128 135.113 11.1572L135.089 10.3835ZM137.054 16.4875H135.289C135.218 16.0385 135.146 15.303 135.089 14.2904C134.677 15.0881 134.233 15.666 133.755 16.0194C133.047 16.5496 132.143 16.8123 131.039 16.8123C129.609 16.8123 128.543 16.3633 127.825 15.4606C127.295 14.7919 127.027 14.0086 127.027 13.1155C127.027 12.4229 127.204 11.7781 127.553 11.1716C127.902 10.565 128.37 10.1017 128.954 9.78168C130.02 9.18465 131.565 8.88853 133.597 8.88853C133.975 8.88853 134.472 8.90285 135.089 8.93629C135.089 7.94761 135.012 7.24551 134.859 6.83476C134.515 5.88907 133.597 5.421 132.1 5.421C130.331 5.421 129.298 6.15653 129.002 7.62283L127.347 7.31715C127.491 6.51475 127.773 5.88429 128.194 5.43055C129.121 4.44187 130.546 3.94992 132.468 3.94992C134.185 3.94992 135.376 4.42755 136.045 5.38757C136.327 5.78877 136.523 6.25684 136.638 6.79177C136.753 7.32671 136.81 8.03836 136.81 8.93151V14.1137C136.82 15.0928 136.906 15.8857 137.054 16.4875ZM121.284 9.00315C121.212 8.0097 120.997 7.25984 120.624 6.74401C120.342 6.35714 119.983 6.04668 119.534 5.8222C119.089 5.58817 118.635 5.47353 118.171 5.47353C117.253 5.47353 116.522 5.90817 115.972 6.77266C115.422 7.63716 115.149 8.79778 115.149 10.245C115.149 11.7829 115.393 13.0056 115.886 13.9179C116.115 14.3191 116.431 14.6439 116.837 14.8922C117.239 15.1358 117.66 15.26 118.114 15.26C119.018 15.26 119.792 14.8445 120.438 14.0134C120.72 13.6695 120.921 13.3208 121.035 12.9722C121.15 12.6235 121.236 12.1459 121.279 11.5441V9.00315H121.284ZM123.077 0.00477359V16.4875H121.447V14.3955C121.021 15.1788 120.595 15.7281 120.17 16.0481C119.5 16.5639 118.716 16.8218 117.808 16.8218C116.651 16.8218 115.661 16.3729 114.848 15.4701C113.748 14.2474 113.193 12.5901 113.193 10.4933C113.193 8.40136 113.724 6.7058 114.791 5.41145C115.589 4.44188 116.627 3.95948 117.903 3.95948C118.63 3.95948 119.247 4.11231 119.754 4.41321C120.261 4.71412 120.768 5.22995 121.284 5.95116V0H123.077V0.00477359ZM109.105 16.4875H107.432V8.65449C107.432 7.70403 107.269 6.99237 106.939 6.51475C106.743 6.23773 106.47 6.01325 106.131 5.85086C105.791 5.68369 105.428 5.60249 105.041 5.60249C104.075 5.60249 103.276 6.0419 102.636 6.93028C102.095 7.6897 101.828 8.64494 101.828 9.80078V16.4923H100.039V4.29859H101.703V6.54341C102.244 5.60727 102.793 4.94815 103.348 4.5565C103.908 4.16485 104.582 3.9738 105.371 3.9738C106.27 3.9738 107.04 4.24605 107.685 4.79531C108.254 5.26816 108.637 5.81742 108.823 6.43833C109.014 7.05446 109.105 8.05746 109.105 9.44256V16.4875ZM95.0567 16.4875H93.4501V14.1567C93.144 14.8349 92.7711 15.3746 92.3216 15.7854C91.5852 16.4684 90.7389 16.8123 89.7825 16.8123C88.611 16.8123 87.6929 16.4063 87.0235 15.5943C86.3397 14.768 85.9955 13.6026 85.9955 12.0934V4.29381H87.7838V12.0934C87.7838 13.1632 87.9798 13.937 88.3672 14.4098C88.8262 14.9639 89.3904 15.2409 90.0646 15.2409C90.9732 15.2409 91.7478 14.8158 92.3885 13.9704C92.9767 13.2062 93.2683 12.2701 93.2683 11.1572V4.28904H95.0567V16.4875ZM76.7238 5.53563C76.2552 5.53563 75.8105 5.65503 75.3754 5.89862C74.9403 6.13743 74.596 6.46221 74.3378 6.86341C73.807 7.66582 73.5393 8.82643 73.5393 10.3309C73.5393 11.8259 73.7879 12.9961 74.2852 13.8415C74.5338 14.2713 74.8829 14.6057 75.3324 14.8636C75.7771 15.1167 76.2552 15.2409 76.7478 15.2409C77.7471 15.2409 78.5361 14.811 79.1051 13.9561C79.6789 13.0964 79.961 11.9214 79.961 10.4121C79.961 8.84076 79.6885 7.65626 79.1386 6.86341C78.5409 5.99414 77.7328 5.54996 76.7238 5.53563ZM76.7764 3.96425C77.9097 3.96425 78.8995 4.29381 79.7411 4.95293C80.4392 5.51175 80.9795 6.26638 81.3573 7.2264C81.735 8.1912 81.9215 9.28018 81.9215 10.5077C81.9215 12.1077 81.5151 13.488 80.7022 14.6486C79.7028 16.0863 78.3353 16.8075 76.6091 16.8075C74.9403 16.8075 73.6445 16.1054 72.736 14.6964C71.9709 13.4976 71.5836 12.0456 71.5836 10.3405C71.5836 8.54464 72.0044 7.09267 72.8459 5.97981C73.8453 4.67113 75.1602 3.99768 76.7764 3.96425ZM61.7908 16.4875H59.8398V0.00477359H69.3649V1.81495H61.786V7.02103H68.0643V8.68793H61.786V16.4875H61.7908Z" fill="#C0C0C0"/>
</svg>
