<svg width="119" height="14" viewBox="0 0 119 14" fill="none" xmlns="http://www.w3.org/2000/svg">
<path d="M0 1.77781C0 1.62539 0.056389 1.49264 0.171618 1.38201C0.286848 1.27137 0.42169 1.21729 0.573695 1.21729H5.33978C5.8767 1.21729 6.38419 1.323 6.85982 1.52951C7.33545 1.73602 7.74979 2.01874 8.10038 2.3703C8.45097 2.72186 8.73046 3.1398 8.93885 3.62166C9.14725 4.10597 9.25022 4.61488 9.25022 5.15328C9.25022 5.69168 9.14479 6.20058 8.93885 6.67752C8.73046 7.15447 8.45097 7.56994 8.10038 7.9215C7.74979 8.27306 7.33545 8.55332 6.85982 8.76229C6.38419 8.97126 5.8767 9.07452 5.33978 9.07452H1.11797V13.1457C1.11797 13.3006 1.06403 13.4309 0.953707 13.5415C0.843381 13.6522 0.713442 13.7062 0.558985 13.7062C0.404529 13.7062 0.274589 13.6522 0.164264 13.5415C0.0539376 13.4309 0 13.3006 0 13.1457V1.77781ZM8.10283 5.15574C8.10283 4.75993 8.03173 4.39115 7.88953 4.05189C7.74733 3.71262 7.55365 3.41515 7.30603 3.16193C7.05841 2.9087 6.76666 2.70957 6.42587 2.55961C6.08509 2.4121 5.72469 2.33589 5.34223 2.33589H1.11797V7.95592H5.34223C5.72469 7.95592 6.08754 7.88216 6.42587 7.7322C6.76421 7.58469 7.05841 7.3831 7.30603 7.12988C7.55365 6.87666 7.74733 6.58164 7.88953 6.23991C8.03173 5.9031 8.10283 5.53926 8.10283 5.15574Z" fill="#C0C0C0"/>
<path d="M10.1577 1.77781C10.1577 1.62539 10.2117 1.49264 10.322 1.38201C10.4323 1.27137 10.5623 1.21729 10.7167 1.21729H15.5C16.0369 1.21729 16.5444 1.323 17.02 1.52951C17.4956 1.73602 17.91 2.01874 18.2606 2.3703C18.6111 2.72186 18.8906 3.1398 19.099 3.62166C19.3074 4.10597 19.4104 4.61488 19.4104 5.15328C19.4104 5.57122 19.3466 5.97194 19.2216 6.35546C19.0966 6.73898 18.9201 7.09546 18.6945 7.41751C18.4689 7.74203 18.1993 8.02475 17.8805 8.26568C17.5618 8.50661 17.2186 8.70083 16.8459 8.84342L18.8171 12.831C18.8833 12.9294 18.9151 13.0351 18.9151 13.1433C18.9151 13.2981 18.8612 13.4284 18.7509 13.5391C18.6406 13.6497 18.5106 13.7038 18.3562 13.7038C18.0816 13.7038 17.9026 13.5784 17.8143 13.3252L15.6936 9.07452H11.2732V13.1457C11.2732 13.3006 11.2193 13.4309 11.109 13.5415C10.9987 13.6522 10.8687 13.7062 10.7143 13.7062C10.5598 13.7062 10.4299 13.6522 10.3195 13.5415C10.2092 13.4309 10.1553 13.3006 10.1553 13.1457V1.77781H10.1577ZM18.2581 5.15574C18.2581 4.75993 18.187 4.39115 18.0448 4.05189C17.9026 3.71262 17.7089 3.41515 17.4613 3.16193C17.2137 2.9087 16.9219 2.70957 16.5811 2.55961C16.2404 2.4121 15.88 2.33589 15.4975 2.33589H11.2732V7.95592H15.4975C15.88 7.95592 16.2428 7.88216 16.5811 7.7322C16.9195 7.58469 17.2137 7.3831 17.4613 7.12988C17.7089 6.87666 17.9026 6.58164 18.0448 6.23991C18.187 5.9031 18.2581 5.53926 18.2581 5.15574Z" fill="#C0C0C0"/>
<path d="M21.71 1.645C21.71 1.49258 21.7639 1.35982 21.8742 1.24919C21.9845 1.13855 22.1145 1.08447 22.2689 1.08447C22.4234 1.08447 22.5533 1.13855 22.6637 1.24919C22.774 1.35982 22.8279 1.49012 22.8279 1.645V13.1481C22.8279 13.303 22.774 13.4333 22.6637 13.5439C22.5533 13.6546 22.4234 13.7087 22.2689 13.7087C22.1145 13.7087 21.9845 13.6546 21.8742 13.5439C21.7639 13.4333 21.71 13.303 21.71 13.1481V1.645Z" fill="#C0C0C0"/>
<path d="M37.7831 13.1481C37.7831 13.303 37.7292 13.4333 37.6189 13.5439C37.5086 13.6546 37.3786 13.7087 37.2242 13.7087C37.0697 13.7087 36.9398 13.6546 36.8294 13.5439C36.7191 13.4333 36.6652 13.303 36.6652 13.1481V2.99715L32.0143 7.67805C31.904 7.78868 31.7741 7.84277 31.6196 7.84277C31.4651 7.84277 31.3352 7.78868 31.2249 7.67805L26.574 2.99715V13.1481C26.574 13.303 26.5201 13.4333 26.4098 13.5439C26.2994 13.6546 26.1695 13.7087 26.015 13.7087C25.8606 13.7087 25.7306 13.6546 25.6203 13.5439C25.51 13.4333 25.4561 13.303 25.4561 13.1481V1.645C25.4561 1.49258 25.51 1.35982 25.6203 1.24919C25.7306 1.13855 25.8606 1.08447 26.015 1.08447C26.1695 1.08447 26.2994 1.13855 26.4098 1.24919L31.6196 6.4562L36.8123 1.24919C36.9226 1.13855 37.0525 1.08447 37.207 1.08447C37.3615 1.08447 37.4938 1.13855 37.6091 1.24919C37.7243 1.35982 37.7807 1.49012 37.7807 1.645V13.1481H37.7831Z" fill="#C0C0C0"/>
<path d="M39.7539 1.77781C39.7539 1.62539 39.8078 1.49264 39.9182 1.38201C40.0285 1.27137 40.1584 1.21729 40.3129 1.21729H48.1681C48.3226 1.21729 48.4525 1.27137 48.5628 1.38201C48.6731 1.49264 48.7271 1.62293 48.7271 1.77781C48.7271 1.9327 48.6731 2.063 48.5628 2.17363C48.4525 2.28426 48.3226 2.33834 48.1681 2.33834H40.8719V6.85453H47.0354C47.1899 6.85453 47.3198 6.90862 47.4301 7.01925C47.5405 7.12988 47.5944 7.26018 47.5944 7.41506C47.5944 7.56995 47.5405 7.70024 47.4301 7.81087C47.3198 7.9215 47.1899 7.97558 47.0354 7.97558H40.8719V12.4574H48.1681C48.3226 12.4672 48.4525 12.5262 48.5628 12.6294C48.6731 12.7352 48.7271 12.863 48.7271 13.0179C48.7271 13.1728 48.6731 13.3031 48.5628 13.4137C48.4525 13.5243 48.3226 13.5784 48.1681 13.5784H40.3129C40.1584 13.5784 40.0285 13.5243 39.9182 13.4137C39.8078 13.3031 39.7539 13.1728 39.7539 13.0179V1.77781Z" fill="#C0C0C0"/>
<path d="M52.2598 1.77781C52.2598 1.62539 52.3137 1.49264 52.424 1.38201C52.5344 1.27137 52.6643 1.21729 52.8188 1.21729H60.674C60.826 1.21729 60.9584 1.27137 61.0687 1.38201C61.179 1.49264 61.2329 1.62293 61.2329 1.77781C61.2329 1.9327 61.179 2.063 61.0687 2.17363C60.9584 2.28426 60.8284 2.33834 60.674 2.33834H53.3777V6.85453H59.5413C59.6933 6.85453 59.8257 6.90862 59.936 7.01925C60.0463 7.12988 60.1003 7.26018 60.1003 7.41506C60.1003 7.56995 60.0463 7.70024 59.936 7.81087C59.8257 7.9215 59.6957 7.97558 59.5413 7.97558H53.3777V12.4574H60.674C60.826 12.4672 60.9584 12.5262 61.0687 12.6294C61.179 12.7352 61.2329 12.863 61.2329 13.0179C61.2329 13.1728 61.179 13.3031 61.0687 13.4137C60.9584 13.5243 60.8284 13.5784 60.674 13.5784H52.8188C52.6643 13.5784 52.5344 13.5243 52.424 13.4137C52.3137 13.3031 52.2598 13.1728 52.2598 13.0179V1.77781Z" fill="#C0C0C0"/>
<path d="M72.0943 1.08447C72.2487 1.08447 72.3787 1.13855 72.489 1.24919C72.5993 1.35982 72.6533 1.49012 72.6533 1.645V13.1481C72.6533 13.303 72.5969 13.4333 72.4816 13.5439C72.3664 13.6546 72.2316 13.7087 72.0796 13.7087C71.8834 13.7087 71.729 13.6275 71.6186 13.4628L64.2391 3.32904V13.1506C64.2391 13.3055 64.1851 13.4358 64.0748 13.5464C63.9645 13.657 63.8345 13.7111 63.6801 13.7111C63.5256 13.7111 63.3957 13.657 63.2854 13.5464C63.175 13.4358 63.1211 13.3055 63.1211 13.1506V1.64745C63.1211 1.49503 63.175 1.36228 63.2854 1.25165C63.3957 1.14102 63.5256 1.08693 63.6801 1.08693C63.8762 1.08693 64.0307 1.15822 64.141 1.30081L71.5353 11.469V1.64745C71.5353 1.49503 71.5892 1.36228 71.6996 1.25165C71.8099 1.13856 71.9423 1.08447 72.0943 1.08447Z" fill="#C0C0C0"/>
<path d="M75.9414 1.77781C75.9414 1.62539 75.9953 1.49264 76.1057 1.38201C76.216 1.27137 76.3459 1.21729 76.5004 1.21729H84.3556C84.5076 1.21729 84.64 1.27137 84.7503 1.38201C84.8606 1.49264 84.9146 1.62293 84.9146 1.77781C84.9146 1.9327 84.8606 2.063 84.7503 2.17363C84.64 2.28426 84.51 2.33834 84.3556 2.33834H77.0594V6.85453H83.2229C83.3749 6.85453 83.5073 6.90862 83.6176 7.01925C83.728 7.12988 83.7819 7.26018 83.7819 7.41506C83.7819 7.56995 83.728 7.70024 83.6176 7.81087C83.5073 7.9215 83.3774 7.97558 83.2229 7.97558H77.0594V12.4574H84.3556C84.5076 12.4672 84.64 12.5262 84.7503 12.6294C84.8606 12.7352 84.9146 12.863 84.9146 13.0179C84.9146 13.1728 84.8606 13.3031 84.7503 13.4137C84.64 13.5243 84.51 13.5784 84.3556 13.5784H76.5004C76.3459 13.5784 76.216 13.5243 76.1057 13.4137C75.9953 13.3031 75.9414 13.1728 75.9414 13.0179V1.77781Z" fill="#C0C0C0"/>
<path d="M86.4736 1.77781C86.4736 1.62539 86.5276 1.49264 86.6379 1.38201C86.7482 1.27137 86.8782 1.21729 87.0326 1.21729H91.8159C92.3528 1.21729 92.8603 1.323 93.3359 1.52951C93.8115 1.73848 94.2259 2.01874 94.5765 2.3703C94.927 2.72186 95.2065 3.1398 95.4149 3.62166C95.6233 4.10597 95.7263 4.61488 95.7263 5.15328C95.7263 5.57122 95.6625 5.97194 95.5375 6.35546C95.4125 6.73898 95.236 7.09546 95.0129 7.41751C94.7873 7.74203 94.5176 8.02475 94.1989 8.26568C93.8802 8.50661 93.5369 8.70083 93.1643 8.84342L95.1354 12.831C95.2016 12.9294 95.2335 13.0351 95.2335 13.1433C95.2335 13.2981 95.1796 13.4284 95.0692 13.5391C94.9589 13.6497 94.829 13.7038 94.6745 13.7038C94.3999 13.7038 94.221 13.5784 94.1327 13.3252L92.012 9.07452H87.5916V13.1457C87.5916 13.3006 87.5377 13.4309 87.4273 13.5415C87.317 13.6522 87.1871 13.7062 87.0326 13.7062C86.8782 13.7062 86.7482 13.6522 86.6379 13.5415C86.5276 13.4309 86.4736 13.3006 86.4736 13.1457V1.77781ZM94.5765 5.15574C94.5765 4.75993 94.5054 4.39115 94.3632 4.05189C94.221 3.71262 94.0273 3.41515 93.7797 3.16193C93.532 2.9087 93.2403 2.70957 92.8995 2.55961C92.5587 2.4121 92.1983 2.33589 91.8159 2.33589H87.5916V7.95592H91.8159C92.1983 7.95592 92.5612 7.88216 92.8995 7.7322C93.2378 7.58469 93.532 7.3831 93.7797 7.12988C94.0248 6.87666 94.221 6.58164 94.3632 6.23991C94.5054 5.9031 94.5765 5.53926 94.5765 5.15574Z" fill="#C0C0C0"/>
<path d="M107.739 6.85209C107.891 6.85209 108.023 6.90618 108.134 7.01681C108.244 7.12744 108.298 7.25774 108.298 7.41262V11.383C108.298 11.5158 108.249 11.6412 108.151 11.7616C107.56 12.4205 106.859 12.9368 106.047 13.3105C105.236 13.6841 104.356 13.8661 103.402 13.8538C102.515 13.8538 101.678 13.6866 100.896 13.3522C100.112 13.0179 99.4303 12.5582 98.8492 11.9755C98.2682 11.3929 97.8073 10.707 97.4689 9.91533C97.1281 9.1237 96.959 8.28291 96.959 7.39295C96.959 6.50299 97.1281 5.66466 97.4689 4.88041C97.8073 4.09616 98.2682 3.41026 98.8492 2.8276C99.4303 2.24495 100.112 1.78276 100.896 1.44349C101.678 1.10422 102.515 0.932129 103.402 0.932129C104.29 0.932129 105.128 1.10177 105.917 1.44349C106.707 1.78522 107.396 2.25232 107.989 2.84481C108.099 2.96527 108.153 3.10049 108.153 3.248C108.153 3.3955 108.099 3.5258 107.989 3.63643C107.869 3.75689 107.734 3.81836 107.587 3.81836C107.44 3.81836 107.31 3.75935 107.2 3.63643C106.673 3.14228 106.094 2.74893 105.457 2.45884C104.822 2.16874 104.142 2.02123 103.419 2.02123C102.674 2.02123 101.978 2.16382 101.333 2.449C100.686 2.73418 100.124 3.12016 99.6485 3.60202C99.1729 4.08633 98.7953 4.65423 98.5232 5.30818C98.2486 5.96213 98.1113 6.65787 98.1113 7.39295C98.1113 8.12803 98.2486 8.82378 98.5232 9.47773C98.7977 10.1317 99.1729 10.6996 99.6485 11.1839C100.124 11.6682 100.686 12.0517 101.333 12.3369C101.98 12.6221 102.674 12.7647 103.419 12.7647C104.152 12.7647 104.841 12.6196 105.481 12.3271C106.121 12.037 106.69 11.6436 107.183 11.1495V7.96823H103.402C103.248 7.96823 103.115 7.91415 103 7.80351C102.885 7.69288 102.828 7.56258 102.828 7.4077C102.828 7.25528 102.885 7.12252 103 7.01189C103.115 6.90126 103.25 6.84717 103.402 6.84717H107.739V6.85209Z" fill="#C0C0C0"/>
<path d="M114.658 7.92391V13.1481C114.658 13.303 114.604 13.4333 114.494 13.5439C114.384 13.6546 114.254 13.7087 114.099 13.7087C113.945 13.7087 113.815 13.6546 113.704 13.5439C113.594 13.4333 113.54 13.303 113.54 13.1481V7.92391L109.301 1.97443C109.235 1.88593 109.203 1.79005 109.203 1.68679C109.203 1.58354 109.225 1.4852 109.269 1.39916C109.313 1.31065 109.377 1.2369 109.458 1.17543C109.539 1.11397 109.642 1.08447 109.762 1.08447C109.948 1.08447 110.1 1.16068 110.223 1.31556L114.102 6.78563L117.98 1.31556C118.09 1.16314 118.242 1.08447 118.441 1.08447C118.551 1.08447 118.649 1.11397 118.738 1.17543C118.826 1.2369 118.892 1.31065 118.934 1.39916C118.978 1.48766 119 1.58354 119 1.68679C119 1.79005 118.968 1.88839 118.902 1.97443L114.658 7.92391Z" fill="#C0C0C0"/>
</svg>
