<svg width="123" height="26" viewBox="0 0 123 26" fill="none" xmlns="http://www.w3.org/2000/svg">
<path d="M0 21.4215C0.393021 20.9696 0.859161 20.9457 1.43498 21.0534C3.54633 21.4515 5.66985 21.7897 7.78424 22.1578C8.54896 22.2925 9.00901 22.8282 8.99987 23.5375C8.99073 24.2348 8.552 24.7256 7.80252 24.8543C5.63329 25.2194 3.46102 25.5546 1.30093 25.9647C0.755575 26.0694 0.377787 25.9377 0 25.6175C0 24.2198 0 22.8192 0 21.4215Z" fill="#C0C0C0"/>
<path d="M70.475 21.0164C87.5623 21.0164 104.647 21.0164 121.734 21.0164C122.975 21.0164 123 21.0443 123 22.4477C123 23.0028 123 23.5544 123 24.1095C123 24.682 122.728 24.9613 122.234 24.9927C122.025 25.0067 121.818 24.9962 121.609 24.9962C87.5686 24.9962 53.5252 24.9962 19.4849 24.9962C18.075 24.9962 18.0125 24.9159 18.0031 23.3065C17.9875 20.6568 17.9531 21.0164 20.082 21.0164C36.8755 21.0129 53.6752 21.0164 70.475 21.0164Z" fill="#C0C0C0"/>
<path d="M28.5549 0.00769655C30.4188 0.013659 31.9349 0.35054 33.2562 1.3105C33.6648 1.60862 33.8467 1.8352 33.3392 2.19593C33.0456 2.40462 32.7839 2.66398 32.5509 2.9323C31.8934 3.68655 31.3093 4.2351 30.1444 3.47786C29.4262 3.00981 28.4145 3.06943 27.5176 3.33178C26.8665 3.52258 26.4453 3.92207 26.474 4.569C26.5027 5.22487 27.0453 5.47828 27.6581 5.57964C28.6762 5.74659 29.7103 5.83603 30.7189 6.05068C32.7807 6.48594 33.8594 7.87818 33.9871 9.83089C34.2169 13.3816 31.3317 14.7738 28.689 14.9556C26.5761 15.1017 24.4888 14.9378 22.6919 13.6856C21.7982 13.0626 21.7918 13.0685 22.5482 12.3649C23.0366 11.9088 23.5409 11.4616 24.01 10.9906C24.2685 10.7312 24.4249 10.7074 24.7792 10.919C26.0654 11.6852 27.4889 11.882 28.9794 11.5749C29.6752 11.4318 30.1316 11.0741 30.1284 10.3586C30.122 9.61624 29.589 9.3211 28.9124 9.20781C28.1304 9.07664 27.3357 9.00509 26.5506 8.87689C24.1185 8.48039 22.8738 7.3028 22.6504 5.20996C22.4238 3.06943 23.5887 1.24491 25.6665 0.454883C26.6687 0.0703027 27.7123 -0.0310596 28.5549 0.00769655Z" fill="#C0C0C0"/>
<path d="M115.99 4.22959C118.139 3.16195 120.439 3.32344 121.797 4.54958C122.534 5.2105 122.784 6.04786 122.861 6.92111C123.017 8.65864 123.108 10.4081 122.764 12.1337C122.277 14.577 118.892 15.7942 116.473 14.4335C116.291 14.3318 116.115 14.2122 115.845 14.0447C115.987 14.7116 115.672 14.8521 115.051 14.8163C114.21 14.7654 113.362 14.7863 112.517 14.8103C112.101 14.8222 111.997 14.6877 112 14.3378C112.01 9.72628 112.014 5.1148 112 0.503319C112 0.0965997 112.176 -0.00507962 112.598 0.00389214C113.527 0.0248262 114.456 0.0308068 115.385 0.000900913C115.882 -0.014052 116.007 0.156411 115.997 0.566121C115.973 1.75936 115.99 2.95261 115.99 4.22959ZM115.976 9.22685C116.034 9.77712 115.922 10.3693 116.142 10.9554C116.372 11.5655 116.838 11.8137 117.534 11.8137C118.26 11.8137 118.716 11.4668 118.865 10.8836C119.149 9.7831 119.142 8.66761 118.868 7.56409C118.716 6.95999 118.226 6.64 117.53 6.63701C116.862 6.63402 116.365 6.86429 116.142 7.49231C115.943 8.05753 116.027 8.62276 115.976 9.22685Z" fill="#C0C0C0"/>
<path d="M50.8068 4.89734C51.6086 4.4583 52.246 4.1501 52.9963 4.05415C55.7718 3.70234 57.855 5.08924 57.951 7.50249C58.0469 9.85178 57.9681 12.2098 57.9921 14.562C57.9955 14.9487 57.8036 14.9923 57.4336 14.9836C56.5187 14.9661 55.6039 14.9516 54.689 14.9894C54.1374 15.0127 53.9695 14.8847 53.9763 14.3992C54.0106 12.4598 53.99 10.5176 53.99 8.57538C53.99 7.89501 53.7639 7.31932 52.9038 7.10998C51.8176 6.84539 50.9747 7.42399 50.9576 8.47943C50.9302 10.3955 50.9199 12.3145 50.9645 14.2276C50.9782 14.8062 50.8548 15.0476 50.101 14.9923C49.2512 14.9283 48.3878 14.9603 47.5312 14.9836C47.1234 14.9952 47.0001 14.8964 47.0001 14.5416C47.0138 11.2183 47.0172 7.89501 47.0001 4.56878C46.9966 4.18499 47.1303 4.06287 47.5791 4.08032C48.3775 4.1094 49.1827 4.1123 49.9811 4.08032C50.5807 4.05706 51.009 4.12103 50.8068 4.89734Z" fill="#C0C0C0"/>
<path d="M106.867 14.0336C105.831 14.9362 104.832 15.1317 103.765 14.9247C101.819 14.5481 100.82 13.1194 101.027 11.0726C101.194 9.42257 102.485 8.37906 104.373 8.37043C105.011 8.36756 105.652 8.33881 106.288 8.38193C106.711 8.41068 106.768 8.2152 106.717 7.88174C106.643 7.40167 106.441 7.03946 105.925 6.90435C105.15 6.69737 104.415 6.71749 103.788 7.26368C103.524 7.49366 103.388 7.48216 103.164 7.23781C102.747 6.78073 102.329 6.31216 101.855 5.9212C101.356 5.51012 101.543 5.28015 101.935 4.95531C103.115 3.98654 104.5 3.96929 105.905 4.01241C106.64 4.03541 107.358 4.16477 108.033 4.47811C109.245 5.03868 109.923 6.02182 109.963 7.33555C110.031 9.70716 109.977 12.0788 110 14.4504C110.003 14.8442 109.833 14.8643 109.532 14.8586C108.845 14.8442 108.158 14.8298 107.474 14.8615C107.02 14.8816 106.666 14.8528 106.867 14.0336ZM105.093 12.257C105.905 12.2599 106.362 12.0328 106.58 11.6045C106.938 10.9002 106.751 10.5782 105.984 10.5753C105.726 10.5753 105.468 10.5667 105.21 10.5782C104.486 10.6069 104.12 10.8973 104.163 11.4406C104.219 12.1276 104.724 12.2311 105.093 12.257Z" fill="#C0C0C0"/>
<path d="M77.0189 10.5705C76.2193 10.5705 75.4197 10.5676 74.6201 10.5734C74.0524 10.5763 73.9725 10.7457 74.255 11.2913C74.6601 12.0724 75.6543 12.3854 76.683 12.0523C76.9602 11.9633 77.2427 11.8513 77.4373 11.6216C77.7198 11.2884 77.9224 11.2798 78.2075 11.6388C78.5674 12.0925 78.9725 12.506 79.3829 12.9081C79.6388 13.155 79.6548 13.2986 79.3909 13.5772C77.8211 15.2456 74.4069 15.5012 72.6639 14.0539C72.1628 13.6375 71.7603 13.1234 71.5365 12.4859C70.8488 10.5361 70.7849 8.55747 71.5631 6.63058C72.3733 4.62328 74.0631 3.75891 76.3499 4.05756C78.069 4.28155 79.4762 5.74611 79.8653 7.66726C80.0279 8.4742 79.9613 9.28401 79.9986 10.0938C80.0146 10.4729 79.8973 10.5906 79.5508 10.582C78.7059 10.5533 77.8637 10.5705 77.0189 10.5705ZM75.545 8.36507C75.8755 8.36507 76.2086 8.33923 76.5364 8.37082C76.9256 8.40815 77.0055 8.2301 76.8962 7.87689C76.7017 7.24225 76.3579 6.80288 75.6836 6.75981C75.0333 6.7196 74.5135 6.90052 74.2257 7.59259C73.9618 8.23585 74.0285 8.35933 74.6814 8.3622C74.9693 8.36507 75.2571 8.36507 75.545 8.36507Z" fill="#C0C0C0"/>
<path d="M42.3182 10.5677C41.3384 10.5677 40.3554 10.5936 39.3756 10.5591C38.6278 10.5332 38.6996 10.8292 38.9478 11.2487C39.5128 12.1999 41.3841 12.5677 42.5435 11.7832C43.3338 11.2487 43.7192 11.4441 44.2025 11.9958C44.3854 12.2027 44.6206 12.3723 44.8329 12.559C45.7081 13.3291 45.7081 13.3291 44.6826 13.9929C42.7656 15.2285 39.3626 15.3463 37.3345 14.24C36.3384 13.6969 35.7081 12.8895 35.3946 11.924C34.8982 10.4039 34.8524 8.86087 35.3586 7.32644C36.0902 5.12248 38.004 3.94722 40.7571 4.00182C43.3044 4.05067 45.2084 5.39833 45.8159 7.55919C46.0608 8.4356 45.9563 9.32063 45.9988 10.2057C46.0184 10.5648 45.8028 10.5763 45.4991 10.5735C44.441 10.562 43.3796 10.5677 42.3182 10.5677ZM40.4795 8.36089C40.9106 8.36089 41.3482 8.33503 41.776 8.36664C42.2953 8.40687 42.3084 8.14825 42.2006 7.84653C41.9818 7.23736 41.5539 6.8207 40.7734 6.76036C39.9831 6.70002 39.3234 6.85518 38.9511 7.53907C38.5886 8.20572 38.6865 8.35514 39.503 8.35801C39.8328 8.36089 40.1562 8.36089 40.4795 8.36089Z" fill="#C0C0C0"/>
<path d="M90.0188 7.48963C90.0188 5.2416 90.0429 2.99659 90.0038 0.748552C89.9917 0.125274 90.1905 -0.0290323 90.7689 0.00424955C91.546 0.0496339 92.3291 0.0496339 93.1062 0.00424955C93.6393 -0.0290323 93.7749 0.140402 93.7688 0.669885C93.7447 4.10396 93.7718 7.53804 93.7417 10.9691C93.7357 11.5319 93.8682 11.6831 94.4375 11.671C96.0941 11.6287 97.7538 11.6741 99.4134 11.6438C99.8863 11.6347 100.031 11.78 99.9947 12.2399C99.9254 13.1354 100.082 14.0401 99.9074 14.9327C99.058 14.9478 98.2086 14.978 97.3562 14.9811C95.1694 14.9871 92.9827 14.9599 90.796 14.9992C90.1875 15.0113 89.9857 14.8873 90.0008 14.2307C90.046 11.9827 90.0188 9.73465 90.0188 7.48963Z" fill="#C0C0C0"/>
<path d="M64.921 4.00997C66.5356 4.02718 67.8663 4.18781 69.0567 4.85612C69.5835 5.15155 69.8093 5.40109 69.1764 5.79118C68.8822 5.97475 68.6188 6.20708 68.3897 6.44514C67.7944 7.06182 67.2129 7.48059 66.1901 6.92988C65.6188 6.62298 64.8594 6.73484 64.1753 6.7836C63.7922 6.81228 63.4364 6.93562 63.3851 7.31423C63.3235 7.75882 63.7511 7.82192 64.1069 7.86207C64.9244 7.95673 65.7488 8.00262 66.5664 8.0858C68.2323 8.25216 69.5664 9.19296 69.8811 10.412C70.2848 11.9781 69.6451 13.4093 68.1981 14.1838C65.9883 15.3684 61.6815 15.2393 59.5709 13.9543C58.9826 13.5958 58.7055 13.2831 59.4512 12.8471C59.6359 12.7381 59.7796 12.5833 59.937 12.4456C60.7032 11.7658 61.3361 10.9627 62.6838 11.8748C63.3543 12.328 64.3874 12.1903 65.2597 12.067C65.6599 12.0096 66.1525 11.8691 66.1046 11.4015C66.0635 10.9942 65.6291 10.8852 65.2289 10.8393C64.5242 10.759 63.8127 10.7131 63.1046 10.6644C61.3224 10.541 60.0293 9.76948 59.6633 8.60496C59.1878 7.08764 59.8309 5.59039 61.3224 4.75859C62.482 4.11323 63.7887 3.95548 64.921 4.00997Z" fill="#C0C0C0"/>
<path d="M13.0226 3.00323C13.3961 3.00323 13.7719 3 14.1454 3.00323C14.8191 3.01293 15.0484 3.32963 14.9917 4.22157C14.8735 6.04422 14.7435 7.86365 14.6158 9.68307C14.4338 12.2781 14.2471 14.8763 14.0698 17.4714C14.0036 18.4376 13.6041 19.0064 12.9635 18.9999C12.3323 18.9903 11.9919 18.4796 11.9234 17.4875C11.6255 13.1506 11.3253 8.81376 11.018 4.47687C10.9352 3.3167 11.1196 3.00323 11.9565 3C12.3134 3 12.668 3.00323 13.0226 3.00323Z" fill="#C0C0C0"/>
<path d="M10.9983 19.506C10.9631 20.1813 10.7007 20.5841 10.192 20.8334C9.67685 21.0855 9.1617 21.0536 8.69454 20.7232C5.94601 18.7728 3.19427 16.8282 0.458532 14.8662C-0.111013 14.4576 -0.149409 13.9591 0.340144 13.4925C1.11127 12.7564 1.90479 12.0406 2.71432 11.3392C3.27426 10.8523 3.78941 10.89 4.27577 11.4493C6.40676 13.8924 8.52496 16.3442 10.6496 18.7931C10.8703 19.0452 11.0175 19.3206 10.9983 19.506Z" fill="#C0C0C0"/>
<path d="M84.9434 11.9883C82.9702 11.9883 82.9912 12.212 83.0017 10.0553C83.0122 8 83.0052 8 85.0588 8C85.2338 8 85.4087 8 85.5836 8C86.8501 8.00699 86.9935 8.14681 86.9935 9.38768C86.9935 9.91199 86.9725 10.4363 86.997 10.9571C87.032 11.6842 86.7626 12.0617 85.9859 11.9918C85.6431 11.9638 85.2932 11.9883 84.9434 11.9883Z" fill="#C0C0C0"/>
</svg>
