<svg width="170" height="96" viewBox="0 0 170 96" fill="none" xmlns="http://www.w3.org/2000/svg">
<g clip-path="url(#clip0)">
<path d="M30.3271 6.88942C31.7109 6.32472 33.0946 5.87295 34.4784 5.53413C36.554 5.08236 38.1684 5.08236 39.3215 5.53413C40.4746 5.98589 41.2818 7.00236 41.6277 8.4706C41.9737 9.93883 41.743 11.0682 40.9359 11.9718C40.1287 12.8753 38.8602 13.553 36.8999 14.0047L36.4387 14.1177C36.3234 14.1177 36.2081 14.1177 35.9774 14.2306L36.6693 17.28L32.864 18.0706L30.3271 6.88942ZM37.4765 11.0682C37.7071 10.8424 37.9377 10.6165 38.0531 10.3906C38.1684 10.0518 38.1684 9.71295 38.0531 9.26119C37.9377 8.58354 37.5918 8.24472 37.2459 8.01883C36.8999 7.79295 36.3234 7.79295 35.5162 7.90589C35.1703 8.01883 34.8243 8.01883 34.5937 8.13178L35.4009 11.52C35.7468 11.52 36.0927 11.4071 36.4387 11.4071C36.8999 11.4071 37.2459 11.1812 37.4765 11.0682Z" fill="black"/>
<path d="M56.5033 13.553L53.0439 10.1647C52.698 10.1647 52.352 10.2777 52.1214 10.2777L52.698 14.1177L49.008 14.6824L47.2783 3.5012C47.8549 3.27531 48.6621 3.04943 49.4692 2.82355C50.2764 2.59767 51.0836 2.48472 51.7755 2.37178C53.7358 2.1459 55.2348 2.25884 56.2727 2.71061C57.3105 3.16237 58.0023 4.17884 58.233 5.4212C58.3483 6.21178 58.233 6.88943 58.0023 7.45414C57.6564 8.01884 57.1951 8.58355 56.6186 9.03531L60.6545 12.9883L56.5033 13.553ZM51.7755 7.68002C52.2367 7.68002 52.698 7.68002 53.0439 7.56708C53.7358 7.45414 54.197 7.34119 54.4277 7.00237C54.6583 6.77649 54.7736 6.32472 54.7736 5.87296C54.6583 5.42119 54.543 5.08237 54.0817 4.85649C53.7358 4.63061 53.1592 4.63061 52.4674 4.74355C52.1214 4.74355 51.6602 4.85649 51.3142 4.96943L51.7755 7.68002Z" fill="black"/>
<path d="M67.9195 11.7459C66.8817 11.2941 65.9592 10.7294 65.3826 9.8259C64.6908 9.03532 64.3448 7.9059 64.3448 6.77649C64.2295 5.53414 64.4601 4.51767 64.9214 3.5012C65.3826 2.59767 66.1898 1.80708 67.2276 1.24238C68.2654 0.67767 69.4185 0.338847 70.9176 0.338847C72.3013 0.225906 73.5698 0.451788 74.7229 0.790611C75.7607 1.24238 76.6832 1.80708 77.2598 2.71061C77.8363 3.61414 78.1823 4.63061 78.2976 5.87296C78.4129 7.11532 78.1823 8.13179 77.721 9.14826C77.2598 10.0518 76.4526 10.8424 75.4148 11.4071C74.377 11.9718 73.2238 12.3106 71.7248 12.4236C70.2257 12.4236 68.9573 12.1977 67.9195 11.7459ZM73.6851 8.47061C74.1463 7.9059 74.377 7.11532 74.377 6.21179C74.2616 5.19532 74.031 4.40473 73.4545 3.95296C72.8779 3.5012 72.0707 3.27532 71.1482 3.27532C70.2257 3.38826 69.4185 3.61414 68.9573 4.17885C68.496 4.74355 68.2654 5.53414 68.2654 6.43767C68.3807 7.45414 68.6114 8.24473 69.1879 8.80943C69.7645 9.2612 70.4563 9.48708 71.4942 9.48708C72.4167 9.37414 73.2238 9.03532 73.6851 8.47061Z" fill="black"/>
<path d="M83.3711 12.9882C83.8323 12.4235 84.063 11.9718 84.2936 11.4071C84.5242 10.8424 84.5242 10.1647 84.5242 9.37413V0.112955H88.3295V9.26119C88.3295 10.2777 88.0989 11.1812 87.753 12.0847C87.2917 12.9882 86.7151 13.7788 85.6773 14.5694L83.3711 12.9882Z" fill="black"/>
<path d="M98.5916 9.37414L105.164 9.82591L104.934 12.5365L94.5557 11.8588L95.3628 0.22591L105.626 0.903557L105.395 3.61414L98.9375 3.16238L98.8222 4.74356L104.472 5.08238L104.242 7.90591L98.5916 7.56709V9.37414Z" fill="black"/>
<path d="M113.928 13.553L115.196 4.85648L111.16 4.29178L111.621 1.35531L123.383 3.04942L122.922 5.9859L118.886 5.42119L117.618 14.1177L113.928 13.553Z" fill="black"/>
<path d="M129.15 15.473C128.228 14.7953 127.651 13.8918 127.305 12.8753C126.959 11.8588 126.959 10.7294 127.19 9.60002C127.421 8.35766 127.997 7.45414 128.689 6.66355C129.381 5.87296 130.419 5.42119 131.457 5.19531C132.61 4.96943 133.878 4.96943 135.262 5.30825C136.646 5.64708 137.799 6.09884 138.721 6.77649C139.644 7.45414 140.22 8.35766 140.566 9.37414C140.912 10.3906 140.912 11.52 140.682 12.6494C140.451 13.8918 139.874 14.7953 139.182 15.5859C138.491 16.3765 137.453 16.8283 136.415 17.0541C135.262 17.28 133.993 17.28 132.61 16.9412C131.226 16.7153 130.073 16.1506 129.15 15.473ZM135.608 13.8918C136.184 13.44 136.646 12.7624 136.876 11.8588C137.107 10.8424 136.992 10.0518 136.646 9.37414C136.3 8.69649 135.608 8.35766 134.57 8.13178C133.647 7.9059 132.84 8.01884 132.148 8.35766C131.572 8.69649 131.111 9.37413 130.88 10.3906C130.649 11.4071 130.765 12.1977 131.111 12.8753C131.457 13.553 132.148 13.8918 133.186 14.1177C134.224 14.3435 135.031 14.2306 135.608 13.8918Z" fill="black"/>
<path d="M42.4342 42.9177C42.0883 41.5624 42.3189 40.5459 42.6649 39.6424C43.1261 38.4 41.8577 37.2706 40.5892 37.6094C39.6667 37.8353 38.8596 38.2871 38.0524 38.6259C33.7858 40.32 32.2868 44.273 33.6705 48.6777C36.3227 56.8094 40.0127 70.0236 42.3189 77.5906C35.9768 69.233 19.2565 53.0824 14.1828 47.4353C7.26405 39.5294 5.8803 33.4306 10.0315 28.4612C11.0693 27.1059 9.22435 25.1859 7.95592 25.9765C3.57406 28.2353 0.345326 33.7694 -0.000609882 39.5294C-0.346546 45.5153 2.53625 50.8236 9.22435 57.713C16.3737 65.0541 25.4834 73.9765 32.6327 81.3177C36.6686 85.3836 38.9749 88.6588 42.4342 93.2894C43.0108 94.08 43.5873 95.6612 44.5098 96C45.4323 96.3388 46.8161 95.4353 47.7386 95.0965C48.8917 94.6447 50.0448 94.08 51.3133 93.6283C52.9276 92.9506 54.542 92.273 56.1564 91.5953C56.9635 91.2565 57.1942 90.353 56.8482 89.6753C54.8879 86.1741 44.1639 49.8071 42.4342 42.9177Z" fill="black"/>
<path d="M104.357 64.1506C104.011 63.5859 103.55 63.1341 102.743 63.2471C101.935 63.36 101.359 64.0377 100.782 64.4894C99.5139 65.3929 98.1301 66.2965 96.8617 67.2C95.9392 67.7647 94.5555 68.7812 94.6708 70.0235C94.7861 70.5882 95.132 71.1529 95.5933 71.4918C95.8239 71.7177 96.1698 71.8306 96.4005 71.9435C97.6689 72.7341 98.0148 75.4447 98.2455 76.8C98.7067 79.1718 99.2833 82.56 97.8995 84.8188C96.4005 87.1906 93.5177 86.2871 91.9033 84.7059C90.0583 82.8988 88.6746 80.5271 87.6367 78.2682C85.9071 74.88 84.6386 71.2659 83.4855 67.5388C83.0243 66.0706 82.6783 64.7153 82.2171 63.36H96.8617C97.2076 63.36 97.6689 63.2471 97.8995 62.9082C97.8995 62.9082 99.7445 61.1012 102.973 59.0682C103.55 58.6165 103.78 57.8259 103.434 57.1482C103.204 56.6965 102.858 55.68 102.397 54.5506C100.09 48.2259 96.6311 39.3035 88.9052 37.9482C85.3305 37.3835 81.6405 37.9482 78.5271 39.7553C72.9921 43.0306 70.8012 49.0165 70.9165 55.1153C67.8031 55.9059 65.9581 57.8259 64.9203 59.6329C63.0753 52.8565 60.9997 46.08 59.27 39.4165C58.924 37.9482 57.8862 37.4965 56.3872 37.9482C54.6575 38.5129 51.4288 39.5294 49.6991 40.0941C48.8919 40.32 48.546 41.1106 48.6613 41.9012C48.7766 42.24 58.8087 76.4612 60.9997 83.5765C63.1906 90.353 65.9581 92.8376 71.9543 92.8376C76.2209 92.8376 79.5649 88.32 81.064 85.7224C84.0621 89.9012 88.098 92.8376 93.7483 92.8376C97.7842 92.8376 101.244 91.2565 103.78 88.32C106.894 84.7059 108.162 79.5106 107.355 74.3153C107.009 72.5082 106.548 70.7012 106.087 68.8941C105.741 67.6518 105.279 66.4094 104.818 65.28C104.703 65.0541 104.588 64.4894 104.357 64.1506ZM77.6046 83.8024C76.7974 84.7059 75.8749 85.2706 75.0677 85.2706C73.684 85.2706 72.1849 83.8024 71.2624 81.3177C70.4552 79.2847 68.7256 72.96 66.65 65.8447C66.7653 65.6188 66.8806 65.28 66.9959 65.1671C67.1112 64.9412 68.149 63.473 72.1849 63.473C72.4156 64.2635 72.6462 65.1671 72.8768 65.9577L73.1074 66.7482C74.4912 71.3788 76.2209 77.1388 78.873 82.1082C78.4118 82.6729 77.9505 83.3506 77.6046 83.8024ZM80.4874 54.8894C79.9108 50.8235 79.6802 45.1765 82.6783 44.273C83.0243 44.16 83.2549 44.16 83.6008 44.16C86.253 44.16 90.2889 48.3388 92.5952 54.8894H80.4874Z" fill="black"/>
<path d="M169.393 86.8518C169.047 86.1741 168.47 85.6094 167.778 85.6094C167.202 85.6094 166.971 85.8353 166.625 86.1741C165.126 87.5294 163.512 85.2706 162.82 84.1412C161.667 82.3341 160.86 80.3012 160.052 78.2683C159.13 76.0094 158.438 73.6377 157.631 71.2659C157.054 69.5718 156.593 67.7647 156.017 65.9577C152.557 54.0988 151.404 39.4165 151.404 39.1906C151.404 38.7388 151.058 38.2871 150.597 38.0612C150.366 37.9483 150.136 37.9482 149.905 37.9482C149.674 37.9482 149.444 38.0612 149.213 38.1741C148.175 38.7388 146.907 39.0777 145.869 39.3035C139.642 40.7718 132.839 40.8847 126.612 39.5294C125.574 39.3035 124.075 38.9647 123.268 39.8682L118.54 44.8377C118.194 45.2894 118.079 45.8541 118.309 46.4188C119.117 48.113 119.924 49.8071 120.616 51.5012C121.077 52.7435 122.115 55.1153 121.192 56.2447C120.616 56.9224 120.846 57.8259 121.308 58.5036C121.999 59.2941 122.922 59.4071 123.844 59.0683C126.497 58.1647 130.533 56.3577 130.763 53.1953C130.878 51.7271 130.187 49.3553 129.61 47.5483C130.648 47.6612 135.26 47.6612 136.875 47.6612C139.412 47.6612 141.372 47.3224 142.64 46.9835C142.871 48.7906 143.332 52.0659 144.139 55.9059C143.448 55.793 142.756 55.793 142.064 55.793C140.449 55.793 138.72 56.0188 136.875 56.5835C129.495 58.6165 126.497 65.1671 126.958 72.2824C127.189 76.0094 127.996 79.9624 129.61 83.3506C128.803 84.2541 127.996 84.8188 127.073 84.8188C125.689 84.8188 124.19 83.3506 123.268 80.8659C121.077 75.1059 119.924 69.0071 118.425 63.0212C116.926 57.1483 115.542 51.1624 114.043 45.1765C113.351 42.24 112.774 39.4165 112.083 36.48C111.391 33.6565 110.468 30.833 110.007 28.0094C110.007 27.7835 110.007 27.6706 109.892 27.4447C109.776 26.4282 110.238 25.6377 110.353 24.7341C110.584 23.6047 109.546 22.1365 108.277 22.7012L99.6289 25.9765C98.937 26.2024 98.5911 26.993 98.7064 27.6706C99.1677 29.7035 110.814 76.2353 113.12 83.3506C115.311 90.1271 118.079 92.6118 124.075 92.6118C128.226 92.6118 130.763 89.5624 132.032 87.5294C137.567 94.193 148.291 94.193 153.941 87.6424C156.017 91.1436 158.553 92.8377 162.128 92.8377C164.665 92.8377 166.856 91.4824 168.355 89.5624C169.162 88.8847 169.854 87.9812 169.393 86.8518ZM147.483 86.4C147.022 87.0777 146.446 87.3036 146.215 87.3036C145.984 87.3036 145.638 87.4165 145.408 87.4165C141.141 87.4165 138.143 80.8659 136.759 75.2188C135.491 70.2494 136.298 62.3436 138.72 61.553C138.95 61.44 139.181 61.44 139.527 61.44C142.179 61.44 145.408 65.7318 147.137 71.4918C148.867 77.7036 149.098 83.9153 147.483 86.4Z" fill="black"/>
<path d="M45.8936 33.0918C46.7008 35.8024 49.6989 37.3835 52.4664 36.5929C55.2339 35.8024 56.8482 32.8659 56.041 30.1553C55.2339 27.4447 52.2357 25.8635 49.4683 26.6541C46.5855 27.4447 44.9711 30.3812 45.8936 33.0918Z" fill="black"/>
</g>
<defs>
<clipPath id="clip0">
<rect width="169.624" height="96" fill="white"/>
</clipPath>
</defs>
</svg>
