<svg width="102" height="58" viewBox="0 0 102 58" fill="none" xmlns="http://www.w3.org/2000/svg">
<g clip-path="url(#clip0)">
<path d="M18.2373 4.1622C19.0694 3.82102 19.9015 3.54808 20.7336 3.34338C21.9817 3.07044 22.9525 3.07044 23.6459 3.34338C24.3393 3.61632 24.8247 4.23044 25.0327 5.1175C25.2407 6.00455 25.102 6.68691 24.6166 7.23279C24.1313 7.77867 23.3685 8.18808 22.1897 8.46103L21.9124 8.52926C21.843 8.52926 21.7737 8.52926 21.635 8.5975L22.051 10.4398L19.7628 10.9175L18.2373 4.1622ZM22.5364 6.68691C22.6751 6.55044 22.8138 6.41397 22.8831 6.2775C22.9525 6.07279 22.9525 5.86808 22.8831 5.59514C22.8138 5.18573 22.6058 4.98102 22.3977 4.84455C22.1897 4.70808 21.843 4.70808 21.3576 4.77632C21.1496 4.84455 20.9416 4.84455 20.8029 4.91279L21.2883 6.95985C21.4963 6.95985 21.7043 6.89161 21.9124 6.89161C22.1897 6.89161 22.3977 6.75514 22.5364 6.68691Z" fill="white"/>
<path d="M33.9779 8.18827L31.8977 6.14122C31.6897 6.14122 31.4816 6.20945 31.343 6.20945L31.6897 8.52945L29.4708 8.87063L28.4307 2.11533C28.7774 1.97886 29.2628 1.84239 29.7481 1.70592C30.2335 1.56945 30.7189 1.50122 31.1349 1.43298C32.3137 1.29651 33.2152 1.36475 33.8392 1.63769C34.4633 1.91063 34.8793 2.52475 35.018 3.27533C35.0874 3.75298 35.018 4.16239 34.8793 4.50357C34.6713 4.84475 34.3939 5.18592 34.0472 5.45886L36.4742 7.8471L33.9779 8.18827ZM31.1349 4.64004C31.4123 4.64004 31.6897 4.64004 31.8977 4.5718C32.3137 4.50357 32.5911 4.43533 32.7298 4.23063C32.8685 4.09416 32.9378 3.82122 32.9378 3.54827C32.8685 3.27533 32.7991 3.07063 32.5218 2.93416C32.3137 2.79769 31.967 2.79769 31.551 2.86592C31.343 2.86592 31.0656 2.93416 30.8576 3.00239L31.1349 4.64004Z" fill="white"/>
<path d="M40.842 7.09653C40.218 6.82358 39.6632 6.48241 39.3165 5.93653C38.9005 5.45888 38.6925 4.77653 38.6925 4.09417C38.6231 3.34359 38.7618 2.72947 39.0392 2.11535C39.3165 1.56947 39.8019 1.09182 40.426 0.750644C41.0501 0.409468 41.7435 0.204762 42.6449 0.204762C43.477 0.136526 44.2397 0.272997 44.9331 0.477703C45.5572 0.750644 46.1119 1.09182 46.4586 1.6377C46.8053 2.18359 47.0133 2.7977 47.0827 3.54829C47.152 4.29888 47.0133 4.913 46.736 5.52711C46.4586 6.073 45.9732 6.55064 45.3492 6.89182C44.7251 7.233 44.0317 7.4377 43.1303 7.50594C42.2288 7.50594 41.4661 7.36947 40.842 7.09653ZM44.3091 5.1177C44.5864 4.77653 44.7251 4.29888 44.7251 3.753C44.6558 3.13888 44.5171 2.66123 44.1704 2.38829C43.8237 2.11535 43.3383 1.97888 42.7836 1.97888C42.2288 2.04711 41.7435 2.18359 41.4661 2.52476C41.1887 2.86594 41.0501 3.34358 41.0501 3.88947C41.1194 4.50358 41.2581 4.98123 41.6048 5.32241C41.9515 5.59535 42.3675 5.73182 42.9916 5.73182C43.5463 5.66358 44.0317 5.45888 44.3091 5.1177Z" fill="white"/>
<path d="M50.1338 7.84718C50.4112 7.50601 50.5498 7.23306 50.6885 6.89189C50.8272 6.55071 50.8272 6.1413 50.8272 5.66365V0.0683594H53.1154V5.59542C53.1154 6.20954 52.9768 6.75542 52.7687 7.3013C52.4914 7.84718 52.1447 8.32483 51.5206 8.80248L50.1338 7.84718Z" fill="white"/>
<path d="M59.2863 5.66378L63.2387 5.93672L63.1 7.57437L56.8594 7.16495L57.3448 0.136719L63.5161 0.54613L63.3774 2.18378L59.4943 1.91084L59.425 2.86613L62.8227 3.07084L62.684 4.77672L59.2863 4.57201V5.66378Z" fill="white"/>
<path d="M68.5089 8.18826L69.2717 2.93414L66.8447 2.59297L67.1221 0.818848L74.1948 1.84238L73.9175 3.6165L71.4906 3.27532L70.7278 8.52944L68.5089 8.18826Z" fill="white"/>
<path d="M77.6622 9.34847C77.1074 8.93906 76.7607 8.39317 76.5527 7.77906C76.3447 7.16494 76.3447 6.48259 76.4834 5.80023C76.6221 5.04964 76.9688 4.50376 77.3848 4.02612C77.8008 3.54847 78.4249 3.27553 79.049 3.13906C79.7424 3.00259 80.5051 3.00259 81.3372 3.20729C82.1693 3.412 82.8627 3.68494 83.4174 4.09435C83.9721 4.50376 84.3188 5.04965 84.5269 5.66376C84.7349 6.27788 84.7349 6.96023 84.5962 7.64259C84.4575 8.39317 84.1108 8.93906 83.6948 9.4167C83.2787 9.89435 82.6547 10.1673 82.0306 10.3038C81.3372 10.4402 80.5745 10.4402 79.7424 10.2355C78.9103 10.0991 78.2169 9.75788 77.6622 9.34847ZM81.5452 8.39317C81.8919 8.12023 82.1693 7.71082 82.308 7.16494C82.4466 6.55082 82.3773 6.07317 82.1693 5.66376C81.9613 5.25435 81.5452 5.04965 80.9212 4.91317C80.3664 4.7767 79.8811 4.84494 79.465 5.04965C79.1183 5.25435 78.8409 5.66376 78.7023 6.27788C78.5636 6.892 78.6329 7.36964 78.8409 7.77906C79.049 8.18847 79.465 8.39317 80.0891 8.52964C80.7131 8.66612 81.1985 8.59788 81.5452 8.39317Z" fill="white"/>
<path d="M25.5174 25.9299C25.3094 25.1111 25.4481 24.497 25.6561 23.9511C25.9334 23.2005 25.1707 22.5182 24.4079 22.7229C23.8532 22.8593 23.3678 23.1323 22.8825 23.337C20.3169 24.3605 19.4154 26.7487 20.2475 29.4099C21.8423 34.3229 24.0612 42.3064 25.4481 46.8781C21.6343 41.8287 11.5799 32.0711 8.52895 28.6593C4.36852 23.8829 3.53643 20.1982 6.03269 17.1958C6.65676 16.377 5.54731 15.217 4.78456 15.6946C2.14962 17.0593 0.208083 20.4029 6.15474e-05 23.8829C-0.20796 27.4993 1.52555 30.7064 5.54731 34.8687C9.84642 39.304 15.3243 44.6946 19.6234 49.1299C22.0504 51.5864 23.4372 53.5652 25.5174 56.3629C25.8641 56.8405 26.2108 57.7958 26.7655 58.0005C27.3203 58.2052 28.1523 57.6593 28.7071 57.4546C29.4005 57.1817 30.0939 56.8405 30.8566 56.5676C31.8274 56.1581 32.7982 55.7487 33.7689 55.3393C34.2543 55.1346 34.393 54.5887 34.185 54.1793C33.0062 52.064 26.5575 30.0923 25.5174 25.9299Z" fill="white"/>
<path d="M62.7535 38.7578C62.5455 38.4166 62.2681 38.1437 61.7828 38.2119C61.2974 38.2801 60.9507 38.6895 60.604 38.9625C59.8412 39.5084 59.0091 40.0542 58.2464 40.6001C57.6917 40.9413 56.8596 41.5554 56.9289 42.306C56.9983 42.6472 57.2063 42.9884 57.4836 43.1931C57.6223 43.3295 57.8303 43.3978 57.969 43.466C58.7318 43.9437 58.9398 45.5813 59.0785 46.4001C59.3558 47.8331 59.7025 49.8801 58.8705 51.2448C57.969 52.6778 56.2355 52.1319 55.2647 51.1766C54.1553 50.0848 53.3232 48.6519 52.6991 47.2872C51.659 45.2401 50.8963 43.0566 50.2029 40.8048C49.9255 39.9178 49.7175 39.099 49.4401 38.2801H58.2464C58.4544 38.2801 58.7318 38.2119 58.8705 38.0072C58.8705 38.0072 59.9799 36.9154 61.9214 35.6872C62.2681 35.4142 62.4068 34.9366 62.1988 34.5272C62.0601 34.2542 61.8521 33.6401 61.5747 32.9578C60.1879 29.1366 58.1077 23.746 53.4619 22.9272C51.3123 22.586 49.0934 22.9272 47.2212 24.019C43.8929 25.9978 42.5754 29.6142 42.6448 33.299C40.7726 33.7766 39.6631 34.9366 39.039 36.0284C37.9296 31.9342 36.6815 27.8401 35.6414 23.8142C35.4333 22.9272 34.8093 22.6542 33.9078 22.9272C32.8677 23.2684 30.9262 23.8825 29.8861 24.2237C29.4007 24.3601 29.1927 24.8378 29.262 25.3154C29.3314 25.5201 35.364 46.1954 36.6815 50.4942C37.9989 54.5884 39.6631 56.0895 43.2688 56.0895C45.8344 56.0895 47.8453 53.3601 48.7467 51.7907C50.5496 54.3154 52.9765 56.0895 56.3742 56.0895C58.8011 56.0895 60.8813 55.1342 62.4068 53.3601C64.279 51.1766 65.0418 48.0378 64.5564 44.899C64.3484 43.8072 64.071 42.7154 63.7936 41.6237C63.5856 40.8731 63.3082 40.1225 63.0309 39.4401C62.9615 39.3037 62.8922 38.9625 62.7535 38.7578ZM46.6665 50.6307C46.1811 51.1766 45.6264 51.5178 45.141 51.5178C44.3089 51.5178 43.4075 50.6307 42.8528 49.1295C42.3674 47.9013 41.3273 44.0801 40.0792 39.7813C40.1485 39.6448 40.2178 39.4401 40.2872 39.3719C40.3565 39.2354 40.9806 38.3484 43.4075 38.3484C43.5462 38.826 43.6849 39.3719 43.8235 39.8495L43.9622 40.3272C44.7943 43.1248 45.8344 46.6048 47.4293 49.6072C47.1519 49.9484 46.8745 50.3578 46.6665 50.6307ZM48.4 33.1625C48.0533 30.706 47.9146 27.2942 49.7175 26.7484C49.9255 26.6801 50.0642 26.6801 50.2722 26.6801C51.8671 26.6801 54.294 29.2048 55.6808 33.1625H48.4Z" fill="white"/>
<path d="M101.861 52.4733C101.653 52.0639 101.306 51.7227 100.89 51.7227C100.543 51.7227 100.405 51.8592 100.197 52.0639C99.2951 52.8827 98.3243 51.518 97.9083 50.8356C97.2149 49.7439 96.7295 48.5156 96.2441 47.2874C95.6894 45.9227 95.2734 44.4897 94.788 43.0568C94.4413 42.0333 94.1639 40.9415 93.8172 39.8497C91.737 32.685 91.0436 23.8144 91.0436 23.678C91.0436 23.405 90.8356 23.1321 90.5582 22.9956C90.4195 22.9274 90.2808 22.9274 90.1422 22.9274C90.0035 22.9274 89.8648 22.9956 89.7261 23.0639C89.102 23.405 88.3393 23.6097 87.7152 23.7462C83.9708 24.6333 79.8798 24.7015 76.1354 23.8827C75.5113 23.7462 74.6099 23.5415 74.1245 24.0874L71.2815 27.0897C71.0735 27.3627 71.0042 27.7039 71.1428 28.045C71.6282 29.0686 72.1136 30.0921 72.5296 31.1156C72.807 31.8662 73.4311 33.2991 72.8763 33.9815C72.5296 34.3909 72.6683 34.9368 72.9457 35.3462C73.3617 35.8239 73.9165 35.8921 74.4712 35.6874C76.066 35.1415 78.4929 34.0497 78.6316 32.1391C78.701 31.2521 78.2849 29.8191 77.9382 28.7274C78.5623 28.7956 81.3359 28.7956 82.3067 28.7956C83.8322 28.7956 85.011 28.5909 85.7737 28.3862C85.9124 29.478 86.1897 31.4568 86.6751 33.7768C86.2591 33.7086 85.843 33.7086 85.427 33.7086C84.4562 33.7086 83.4161 33.845 82.3067 34.1862C77.8689 35.4144 76.066 39.3721 76.3434 43.6709C76.4821 45.9227 76.9674 48.3109 77.9382 50.358C77.4528 50.9039 76.9674 51.245 76.4127 51.245C75.5806 51.245 74.6792 50.358 74.1245 48.8568C72.807 45.3768 72.1136 41.6921 71.2122 38.0756C70.3107 34.5274 69.4787 30.9109 68.5772 27.2944C68.1612 25.5203 67.8145 23.8144 67.3984 22.0403C66.9824 20.3344 66.4277 18.6286 66.1503 16.9227C66.1503 16.7862 66.1503 16.718 66.081 16.5815C66.0116 15.9674 66.289 15.4897 66.3583 14.9438C66.497 14.2615 65.873 13.3744 65.1102 13.7156L59.9097 15.6944C59.4936 15.8309 59.2856 16.3086 59.3549 16.718C59.6323 17.9462 66.6357 46.0592 68.0225 50.358C69.34 54.4521 71.0042 55.9533 74.6099 55.9533C77.1061 55.9533 78.6316 54.1109 79.3944 52.8827C82.7227 56.9086 89.1714 56.9086 92.5691 52.9509C93.8172 55.0662 95.3427 56.0897 97.4923 56.0897C99.0178 56.0897 100.335 55.2709 101.237 54.1109C101.722 53.7015 102.138 53.1556 101.861 52.4733ZM88.686 52.2003C88.4086 52.6097 88.0619 52.7462 87.9233 52.7462C87.7846 52.7462 87.5766 52.8144 87.4379 52.8144C84.8723 52.8144 83.0694 48.8568 82.2373 45.445C81.4746 42.4427 81.96 37.6662 83.4161 37.1886C83.5548 37.1203 83.6935 37.1203 83.9015 37.1203C85.4963 37.1203 87.4379 39.7133 88.478 43.1933C89.5181 46.9462 89.6568 50.6992 88.686 52.2003Z" fill="white"/>
<path d="M27.5976 19.9935C28.083 21.6311 29.8859 22.5864 31.55 22.1088C33.2142 21.6311 34.185 19.857 33.6996 18.2194C33.2142 16.5817 31.4114 15.6264 29.7472 16.1041C28.0137 16.5817 27.0429 18.3559 27.5976 19.9935Z" fill="white"/>
</g>
<defs>
<clipPath id="clip0">
<rect width="102" height="58" fill="white"/>
</clipPath>
</defs>
</svg>
