<svg width="116" height="32" viewBox="0 0 116 32" fill="none" xmlns="http://www.w3.org/2000/svg">
<path d="M17.4647 31.773V12.0284L12.7589 25.0553H9.79964L5.33644 12.3007V31.773H0V0H4.80279L11.4976 16.7489L17.9983 0H22.9467V31.773H17.4647Z" fill="#C0C0C0"/>
<path d="M27.5255 31.773V0H41.6913V4.53901H32.8619V13.5262H40.4785V18.0199H32.8619V27.234H41.6913V31.773H27.5255Z" fill="#C0C0C0"/>
<path d="M45.824 31.773V0H51.1604V31.773H45.824Z" fill="#C0C0C0"/>
<path d="M73.0751 23.8298C73.0751 28.5504 69.6306 32 64.5368 32C59.3459 32 55.9985 28.5504 55.9985 23.8298V0H61.2864V24.1021C61.2864 26.3262 62.6933 27.5064 64.5368 27.5064C66.2347 27.5064 67.7871 26.3262 67.7871 24.1021V0H73.0751V23.8298Z" fill="#C0C0C0"/>
<path d="M94.4947 23.1489C94.4947 27.8241 92.1176 31.773 86.0534 31.773C78.1458 31.773 77.1755 26.6894 77.1755 15.9319C77.1755 5.08369 78.1458 0 86.0534 0C92.3601 0 94.4947 3.54043 94.4947 8.53333H89.2553C89.2553 5.99149 88.5761 4.35745 86.0534 4.35745C82.2209 4.35745 82.4149 9.21418 82.4149 15.8865C82.4149 22.3319 82.2209 27.3248 86.0534 27.3248C88.3821 27.3248 89.3038 25.8723 89.3038 23.1489H94.4947Z" fill="#C0C0C0"/>
<path d="M107.413 0C113.332 0 116 3.26809 116 8.07943V31.773H110.712V18.1106H104.163V31.773H98.8264V8.07943C98.8264 3.44965 101.592 0 107.413 0ZM104.26 13.7986H110.809V7.89787C110.809 5.67376 109.305 4.5844 107.51 4.5844C105.764 4.5844 104.26 5.67376 104.26 7.89787V13.7986Z" fill="#C0C0C0"/>
</svg>
