<svg width="79" height="24" viewBox="0 0 79 24" fill="none" xmlns="http://www.w3.org/2000/svg">
<path d="M11.1489 22.5789H0V0.500977H4.15373V18.5751H11.151V22.5789H11.1489Z" fill="#C0C0C0"/>
<path d="M20.8887 0.500977H25.0424V22.5768H20.8887V0.500977Z" fill="#C0C0C0"/>
<path d="M44.2903 22.5789H40.2833L32.416 0.500977H36.8033L42.2134 16.2186H42.3312L47.7703 0.500977H52.0997L44.2903 22.5789Z" fill="#C0C0C0"/>
<path d="M78.8774 11.5412C78.8774 13.1698 78.5695 14.6902 77.9557 16.1045C77.3419 17.5167 76.5029 18.7397 75.4407 19.7692C74.3785 20.7988 73.1303 21.6099 71.6962 22.1985C70.2641 22.7871 68.7369 23.0825 67.1188 23.0825C65.48 23.0825 63.9508 22.7871 62.527 22.1985C61.1031 21.6099 59.8611 20.8008 58.7989 19.7692C57.7368 18.7397 56.8977 17.5167 56.284 16.1045C55.6702 14.6922 55.3623 13.1719 55.3623 11.5412C55.3623 9.91269 55.6702 8.3923 56.284 6.97799C56.8977 5.56575 57.7368 4.34278 58.7989 3.31324C59.8611 2.2837 61.1052 1.47255 62.527 0.883948C63.9508 0.295343 65.48 0 67.1188 0C68.7369 0 70.262 0.295343 71.6962 0.883948C73.1303 1.47255 74.3765 2.28162 75.4407 3.31324C76.5029 4.34278 77.3419 5.56575 77.9557 6.97799C78.5695 8.39022 78.8774 9.91269 78.8774 11.5412ZM74.6079 11.5412C74.6079 10.5013 74.4137 9.52584 74.0231 8.61277C73.6325 7.6997 73.1014 6.90519 72.4298 6.22923C71.7582 5.55327 70.9626 5.01874 70.0471 4.62565C69.1295 4.23255 68.1562 4.03704 67.1229 4.03704C66.0897 4.03704 65.1205 4.23255 64.2133 4.62565C63.3061 5.01874 62.5166 5.55327 61.845 6.22923C61.1713 6.90727 60.6402 7.70178 60.2517 8.61277C59.8611 9.52584 59.6669 10.5013 59.6669 11.5412C59.6669 12.5812 59.8611 13.5629 60.2517 14.4843C60.6423 15.4077 61.1734 16.2064 61.845 16.8824C62.5166 17.5583 63.3081 18.0949 64.2133 18.4859C65.1205 18.879 66.0897 19.0746 67.1229 19.0746C68.1562 19.0746 69.1316 18.879 70.0471 18.4859C70.9626 18.0928 71.7582 17.5583 72.4298 16.8824C73.1035 16.2043 73.6346 15.4056 74.0231 14.4843C74.4116 13.5608 74.6079 12.5812 74.6079 11.5412Z" fill="#C0C0C0"/>
</svg>
