<svg width="165" height="13" viewBox="0 0 165 13" fill="none" xmlns="http://www.w3.org/2000/svg">
<path d="M18.3489 5.17886C18.3489 7.39187 18.3361 9.53132 18.3586 11.6676C18.365 12.0961 18.2337 12.1952 17.8335 12.1761C17.2028 12.1441 16.5688 12.1569 15.9349 12.1697C15.682 12.1761 15.5603 12.1345 15.5635 11.8339C15.5731 8.09542 15.5731 4.35697 15.5667 0.618528C15.5667 0.356293 15.6308 0.228373 15.9189 0.250759C16.1622 0.269946 16.412 0.25076 16.6553 0.257156C17.2316 0.276344 17.9199 0.0460894 18.3554 0.340304C18.7844 0.631321 18.9701 1.2901 19.2454 1.79539C19.9946 3.17372 20.827 4.50408 21.5057 5.96876C22.4054 4.11393 23.4683 2.4158 24.4192 0.653706C24.5825 0.349897 24.7618 0.228374 25.1108 0.244364C25.7607 0.273146 26.4106 0.263552 27.0606 0.247562C27.3359 0.241166 27.4223 0.333907 27.4223 0.608934C27.4159 4.34738 27.4159 8.08583 27.4223 11.8243C27.4223 12.1121 27.3231 12.1761 27.0574 12.1697C26.4266 12.1537 25.7895 12.1313 25.162 12.1761C24.7074 12.208 24.6497 12.0194 24.6593 11.6356C24.7042 9.44497 24.5921 7.25115 24.749 4.91982C24.0798 6.44526 23.1994 7.69887 22.4246 9.01324C22.066 9.62406 20.9423 9.62406 20.5837 9.01964C19.8409 7.76603 19.0309 6.55079 18.3489 5.17886Z" fill="#C0C0C0"/>
<path d="M48.6141 4.95169C48.6141 7.23825 48.6045 9.44486 48.6205 11.6483C48.6237 12.0352 48.5597 12.2079 48.1147 12.1791C47.484 12.1344 46.85 12.1504 46.2193 12.1727C45.912 12.1823 45.8447 12.0768 45.8447 11.789C45.8543 8.06973 45.8543 4.34727 45.8447 0.628005C45.8447 0.3178 45.9504 0.215465 46.2385 0.257039C46.2545 0.260237 46.2737 0.257039 46.2897 0.257039C47.0101 0.263435 47.8393 0.0491707 48.4156 0.340188C48.9919 0.628007 49.3281 1.41151 49.7411 1.99674C51.0025 3.78442 52.3889 5.48255 53.551 7.34058C53.5638 7.36297 53.6023 7.36617 53.6503 7.39175C53.6503 6.86728 53.6503 6.3556 53.6503 5.84073C53.6503 4.1394 53.6663 2.43487 53.6407 0.733539C53.6343 0.324196 53.7591 0.228258 54.1433 0.247446C54.7741 0.279426 55.408 0.266632 56.0387 0.250642C56.3172 0.244246 56.4517 0.30181 56.4485 0.618411C56.4389 4.35686 56.4421 8.09531 56.4453 11.8306C56.4453 12.0704 56.3845 12.1951 56.1219 12.1663C55.9843 12.1504 55.8402 12.1631 55.6993 12.1631C55.1038 12.1568 54.4027 12.3422 53.9352 12.0928C53.4294 11.821 53.1348 11.1526 52.7602 10.6441C51.3995 8.77328 49.9364 6.96322 48.6141 4.95169Z" fill="#C0C0C0"/>
<path d="M12.2886 12.1699C11.3985 12.1699 10.5053 12.1635 9.61522 12.1731C9.35909 12.1763 9.30146 12.0324 9.23422 11.8342C9.03892 11.2393 8.81481 10.6509 8.61951 10.0561C8.53627 9.80343 8.405 9.71069 8.12966 9.71709C6.86502 9.73308 5.60038 9.73307 4.33574 9.72028C4.054 9.71708 3.94194 9.81622 3.8619 10.0817C3.68581 10.6669 3.44249 11.2297 3.2728 11.815C3.18636 12.1156 3.03908 12.1859 2.75094 12.1795C2.06579 12.1603 1.38064 12.1412 0.698698 12.1827C0.138415 12.2179 0.304901 11.9365 0.410554 11.6519C1.6848 8.14687 2.96225 4.63868 4.23649 1.13368C4.55345 0.26063 4.55665 0.263827 5.50113 0.263827C6.2215 0.263827 6.94186 0.273422 7.66223 0.257432C7.88954 0.254234 8.01121 0.321391 8.09125 0.535656C9.49035 4.36685 10.8959 8.19804 12.2982 12.0324C12.3078 12.058 12.2918 12.0964 12.2886 12.1699ZM6.2279 2.84141C5.8373 4.2805 5.37947 5.68442 4.88322 7.07235C4.78397 7.35057 4.89282 7.40494 5.14255 7.39854C5.80849 7.38895 6.47442 7.36656 7.13716 7.40494C7.63661 7.43692 7.62701 7.26423 7.47654 6.88047C6.96748 5.56609 6.56727 4.21654 6.2279 2.84141Z" fill="#C0C0C0"/>
<path d="M42.4517 12.1699C41.5552 12.1699 40.694 12.1571 39.8359 12.1763C39.5446 12.1827 39.4453 12.0548 39.3653 11.8054C39.1796 11.2233 38.9619 10.6509 38.7698 10.072C38.6898 9.83219 38.5841 9.71067 38.296 9.71707C37.0313 9.73626 35.7667 9.72986 34.502 9.72026C34.2331 9.71707 34.1018 9.78742 34.0186 10.0656C33.8489 10.6509 33.6056 11.2137 33.4327 11.799C33.3495 12.0836 33.2278 12.1891 32.9268 12.1795C32.2065 12.1571 31.4861 12.1635 30.7657 12.1795C30.4808 12.1859 30.3848 12.1283 30.4968 11.8277C31.8671 8.0765 33.2278 4.31886 34.5885 0.564426C34.6717 0.330973 34.8062 0.254222 35.0527 0.25742C35.9652 0.270212 36.8808 0.270212 37.7933 0.25742C38.0398 0.254222 38.1711 0.330973 38.2543 0.564426C39.647 4.38282 41.0462 8.19802 42.4421 12.0164C42.4517 12.0452 42.4453 12.0804 42.4517 12.1699ZM36.4262 3.00449C36.2757 3.01728 36.2693 3.09403 36.2533 3.15799C35.914 4.50435 35.4849 5.82192 35.0143 7.1267C34.9118 7.40812 35.1007 7.39533 35.2864 7.39213C35.9716 7.38893 36.6535 7.36974 37.3355 7.39853C37.7517 7.41452 37.7901 7.29619 37.6492 6.93162C37.153 5.65882 36.7752 4.33805 36.4262 3.00449Z" fill="#C0C0C0"/>
<path d="M87.1388 8.98445C87.286 8.67744 87.1964 8.41841 87.1964 8.16576C87.1964 5.67453 87.1964 3.1801 87.1804 0.688868C87.1772 0.340288 87.2796 0.215567 87.6254 0.247547C88.0928 0.292319 88.698 0.0556661 88.9989 0.343485C89.3063 0.634502 89.095 1.24212 89.095 1.70903C89.1046 5.02534 89.0917 8.34485 89.111 11.6612C89.1142 12.0705 88.9989 12.1473 88.5955 12.1984C87.5646 12.3327 86.9531 11.9458 86.3864 11.0695C85.0737 9.03882 83.6234 7.09444 82.2467 5.10529C81.8625 4.54884 81.5327 3.95402 81.0877 3.22807C81.0877 3.55746 81.0813 3.73655 81.0877 3.91564C81.2094 6.49322 81.1069 9.07399 81.1517 11.6516C81.1581 12.0609 81.0525 12.2336 80.6267 12.176C80.1816 12.1153 79.5861 12.3743 79.33 12.0545C79.1123 11.7827 79.25 11.2166 79.25 10.7785C79.2468 7.46221 79.2564 4.1427 79.2372 0.826382C79.234 0.36907 79.3588 0.273131 79.8166 0.225161C80.822 0.113231 81.4271 0.468207 81.9777 1.34126C83.5561 3.84528 85.4131 6.17022 86.921 8.72541C86.9659 8.80856 87.0427 8.87572 87.1388 8.98445Z" fill="#C0C0C0"/>
<path d="M142.387 4.77874C142.387 5.97159 142.393 7.16763 142.383 8.36048C142.367 10.6854 140.907 12.2109 138.589 12.3836C137.472 12.4667 136.377 12.4283 135.34 11.9614C133.931 11.3282 133.208 10.1897 133.179 8.68668C133.128 6.01956 133.172 3.34924 133.156 0.682118C133.153 0.317548 133.291 0.253586 133.617 0.250388C135.064 0.237596 135.065 0.228003 135.068 1.64471C135.071 3.78736 135.052 5.92682 135.084 8.06947C135.119 10.6886 137.174 11.2451 138.932 10.647C140.142 10.2345 140.44 9.15998 140.446 8.00871C140.462 5.67418 140.45 3.33964 140.453 1.00511C140.453 0.256784 140.456 0.256786 141.18 0.256786C142.387 0.259984 142.387 0.259983 142.387 1.46562C142.387 2.56573 142.387 3.67224 142.387 4.77874Z" fill="#C0C0C0"/>
<path d="M96.8018 0.00127646C97.6342 0.00767244 98.4442 0.116404 99.1934 0.516153C100.138 1.02144 100.612 1.83373 100.772 2.86348C100.804 3.07455 100.756 3.20246 100.519 3.22485C100.397 3.23764 100.279 3.27922 100.16 3.3016C99.7985 3.37196 99.4143 3.54465 99.0814 3.47749C98.6716 3.39434 98.8252 2.86987 98.6459 2.56287C98.1977 1.79215 97.3013 1.3924 96.2863 1.58108C95.4539 1.73459 94.9641 2.22068 94.8744 2.985C94.7976 3.65658 95.0249 4.18745 95.598 4.56161C96.3568 5.0573 97.2276 5.28116 98.0536 5.62014C99.0365 6.02629 99.9938 6.4836 100.487 7.50696C101.527 9.67839 100.26 11.9458 97.7623 12.3327C96.5937 12.5118 95.4187 12.499 94.3077 11.9809C93.28 11.5012 92.7774 10.641 92.518 9.58885C92.4636 9.36499 92.5308 9.26265 92.7421 9.20829C93.1327 9.10915 93.5265 9.01961 93.9107 8.89808C94.1893 8.80854 94.2917 8.92047 94.3494 9.16672C94.7976 11.0184 96.7218 11.1942 97.8904 10.7081C98.9565 10.2668 99.1966 8.90768 98.3834 8.0826C97.8744 7.56772 97.2052 7.33746 96.5521 7.08162C95.8029 6.79061 95.0313 6.54436 94.3526 6.09025C93.168 5.29395 92.6749 4.0947 92.9534 2.6684C93.2192 1.30926 94.106 0.426609 95.5019 0.125998C95.9278 0.0364542 96.36 -0.00831751 96.8018 0.00127646Z" fill="#C0C0C0"/>
<path d="M156.906 6.17966C156.906 4.3728 156.916 2.56594 156.9 0.759072C156.897 0.375314 156.999 0.240998 157.399 0.244196C159.541 0.263384 161.683 0.260187 163.828 0.247395C164.19 0.244197 164.308 0.343333 164.305 0.717497C164.299 1.93273 164.315 1.93273 163.098 1.93273C161.817 1.93273 160.534 1.94553 159.253 1.92634C158.91 1.92314 158.795 2.02228 158.805 2.37086C158.827 3.23112 158.827 4.09137 158.805 4.94844C158.795 5.29062 158.901 5.40255 159.25 5.39615C160.566 5.37697 161.885 5.40575 163.201 5.38016C163.601 5.37377 163.703 5.49209 163.697 5.88225C163.684 7.03032 163.703 7.03033 162.583 7.03033C161.475 7.03033 160.37 7.03992 159.263 7.02393C158.93 7.02073 158.795 7.11028 158.805 7.46525C158.827 8.3415 158.827 9.22095 158.805 10.0972C158.798 10.433 158.93 10.5065 159.237 10.5033C160.748 10.4906 162.259 10.5097 163.767 10.4905C164.171 10.4842 164.315 10.5865 164.305 11.015C164.286 12.1759 164.305 12.1759 163.162 12.1759C161.232 12.1759 159.298 12.1663 157.367 12.1823C156.993 12.1855 156.893 12.0704 156.897 11.7058C156.913 9.86374 156.903 8.0217 156.906 6.17966Z" fill="#C0C0C0"/>
<path d="M108.987 7.04271C108.987 8.58734 108.977 10.132 108.993 11.6766C108.996 12.0476 108.932 12.2426 108.51 12.1851C108.029 12.1211 107.383 12.3961 107.104 12.0636C106.867 11.7789 107.024 11.1585 107.024 10.6852C107.021 7.94774 107.011 5.21027 107.03 2.47279C107.034 2.03146 106.902 1.90354 106.467 1.91953C105.66 1.95471 104.85 1.91954 104.043 1.93553C103.72 1.94192 103.576 1.87157 103.566 1.5038C103.537 0.246988 103.525 0.246988 104.789 0.246988C107.162 0.246988 109.534 0.25658 111.903 0.237392C112.32 0.234194 112.492 0.317343 112.483 0.781051C112.457 1.92913 112.483 1.92913 111.308 1.92913C110.709 1.92913 110.11 1.95471 109.515 1.91953C109.092 1.89715 108.971 2.05065 108.977 2.4568C108.996 3.99183 108.987 5.51727 108.987 7.04271Z" fill="#C0C0C0"/>
<path d="M150.438 7.07802C150.438 8.62265 150.428 10.1673 150.444 11.7087C150.448 12.0637 150.364 12.2236 149.98 12.1884C149.65 12.1564 149.311 12.1532 148.981 12.1884C148.559 12.2332 148.453 12.0701 148.456 11.6607C148.472 8.64503 148.466 5.62614 148.466 2.60724C148.466 1.93246 148.466 1.93246 147.777 1.93246C146.987 1.93246 146.196 1.91967 145.405 1.93566C145.104 1.94206 145.018 1.83332 145.005 1.54231C144.944 0.256716 144.938 0.256717 146.196 0.256717C148.584 0.256717 150.973 0.266311 153.361 0.247123C153.809 0.243925 153.925 0.384636 153.918 0.813166C153.902 1.93246 153.921 1.93566 152.82 1.93566C152.241 1.93566 151.658 1.98043 151.082 1.92287C150.508 1.8653 150.416 2.10515 150.425 2.60724C150.457 4.0943 150.438 5.58776 150.438 7.07802Z" fill="#C0C0C0"/>
<path d="M126.423 7.08791C126.423 8.61655 126.411 10.142 126.43 11.6706C126.433 12.0448 126.359 12.2335 125.943 12.1823C125.479 12.1247 124.877 12.3806 124.579 12.0704C124.31 11.789 124.506 11.2005 124.502 10.7464C124.496 8.00893 124.486 5.26826 124.512 2.53078C124.515 2.03189 124.362 1.90398 123.891 1.92636C123.1 1.96154 122.309 1.92316 121.518 1.94235C121.173 1.95194 121.022 1.87519 121.019 1.48184C121.016 0.253814 120.997 0.253813 122.213 0.253813C124.57 0.253813 126.923 0.263407 129.276 0.244219C129.737 0.241021 129.929 0.333762 129.91 0.84544C129.872 1.93595 129.9 1.93595 128.831 1.93595C128.162 1.93595 127.496 1.95194 126.827 1.92956C126.497 1.91677 126.411 2.03829 126.414 2.35169C126.433 3.9283 126.423 5.50811 126.423 7.08791Z" fill="#C0C0C0"/>
<path d="M61.1549 6.25665C61.1549 4.41461 61.1645 2.57257 61.1485 0.727331C61.1453 0.36276 61.2478 0.234839 61.6224 0.250829C62.2531 0.279611 62.887 0.273215 63.5177 0.250829C63.8283 0.241235 63.95 0.317987 63.9468 0.653776C63.9372 4.37304 63.9404 8.09549 63.9468 11.8148C63.9468 12.0898 63.8603 12.1793 63.585 12.1729C62.919 12.1569 62.2499 12.1473 61.584 12.1761C61.2286 12.1921 61.1453 12.0674 61.1485 11.7316C61.1645 9.90556 61.1549 8.0795 61.1549 6.25665Z" fill="#C0C0C0"/>
<path d="M115.774 6.20206C115.774 4.39519 115.784 2.58833 115.765 0.781469C115.762 0.36573 115.883 0.205832 116.303 0.247405C116.597 0.279385 116.901 0.282583 117.196 0.247405C117.641 0.196238 117.715 0.404106 117.715 0.791062C117.702 4.3856 117.699 7.98334 117.718 11.5779C117.721 12.0512 117.596 12.2015 117.106 12.1887C115.774 12.1567 115.774 12.1791 115.774 10.8327C115.774 9.28812 115.774 7.74669 115.774 6.20206Z" fill="#C0C0C0"/>
<path d="M72.8443 6.14759C72.8443 4.35991 72.8539 2.57224 72.8379 0.784566C72.8347 0.394412 72.9051 0.234511 73.347 0.240907C74.7621 0.260095 74.7589 0.240908 74.7589 1.66401C74.7589 4.99312 74.7525 8.32542 74.7685 11.6545C74.7717 12.0543 74.6916 12.2334 74.2562 12.1822C73.808 12.1278 73.2221 12.3645 72.9372 12.0894C72.6522 11.8112 72.8507 11.226 72.8475 10.7751C72.8379 9.23365 72.8443 7.69222 72.8443 6.14759Z" fill="#C0C0C0"/>
</svg>
