<svg width="64" height="49" viewBox="0 0 64 49" fill="none" xmlns="http://www.w3.org/2000/svg">
<path d="M59.2649 21.2729C59.2649 21.6382 59.2649 22.0035 59.2649 22.3688C59.2348 22.3815 59.2112 22.3752 59.194 22.3478C59.1273 21.9961 59.1262 21.6445 59.194 21.2929C59.2112 21.2665 59.2359 21.2592 59.2649 21.2729Z" fill="#C0C0C0"/>
<path d="M59.2227 22.3712C59.2366 22.3702 59.2506 22.3691 59.2646 22.3691C59.2646 22.5302 59.2646 22.6902 59.2646 22.8513C59.2356 22.865 59.213 22.8587 59.1947 22.8324C59.1431 22.6755 59.1162 22.5197 59.2227 22.3712Z" fill="#C0C0C0"/>
<path d="M59.2649 21.2732C59.251 21.2721 59.2381 21.2711 59.2241 21.27C59.1198 21.1373 59.1467 20.9952 59.1951 20.8531C59.2134 20.8278 59.2359 20.8215 59.2649 20.8352C59.2649 20.9805 59.2649 21.1268 59.2649 21.2732Z" fill="#C0C0C0"/>
<path d="M4.81348 20.0015C4.89303 20.1183 4.87153 20.2352 4.81348 20.352C4.81348 20.2352 4.81348 20.1183 4.81348 20.0015Z" fill="#C0C0C0"/>
<path d="M59.2282 22.8542C59.2411 22.8553 59.2529 22.8542 59.2658 22.8511C59.2658 22.9679 59.2658 23.0848 59.2658 23.2017L59.2465 23.2038H59.2271C59.1304 23.0869 59.1293 22.9711 59.2282 22.8542Z" fill="#C0C0C0"/>
<path d="M59.2641 20.8339C59.2523 20.8307 59.2394 20.8297 59.2265 20.8307C59.1351 20.7286 59.1362 20.6275 59.2254 20.5243C59.2383 20.5233 59.2512 20.5243 59.263 20.5264C59.2641 20.6296 59.2641 20.7317 59.2641 20.8339Z" fill="#C0C0C0"/>
<path d="M59.2269 20.5258C59.2269 20.6279 59.2269 20.73 59.228 20.8322C59.2269 20.9785 59.2259 21.1248 59.2248 21.2712C59.2248 21.6386 59.2237 22.006 59.2237 22.3735C59.2248 22.5345 59.2269 22.6956 59.228 22.8567C59.228 22.9736 59.228 23.0894 59.2269 23.2062C59.1463 25.2792 58.9313 27.3406 58.6915 29.401C58.6582 29.6916 58.6259 29.9821 58.6077 30.2727C58.6001 30.3917 58.5604 30.4127 58.4464 30.4043C57.6067 30.3443 56.766 30.2896 55.9252 30.2348C55.7618 30.2243 55.5973 30.2053 55.4339 30.2106C55.2543 30.2159 55.2264 30.1359 55.2436 29.9832C55.3232 29.2799 55.3877 28.5745 55.4715 27.8713C55.5919 26.8563 55.6876 25.8383 55.764 24.8191C55.8693 23.4126 55.9166 22.0039 55.8521 20.5942C55.7962 19.3677 55.6769 18.1464 55.2328 16.982C55.0673 16.5483 54.8512 16.1398 54.52 15.8029C53.8728 15.1428 52.6386 15.1059 51.8333 15.7218C51.2721 16.1513 50.9592 16.7472 50.7055 17.3779C50.2797 18.436 50.0583 19.5456 49.8658 20.6605C49.5863 22.2787 49.3702 23.9074 48.9659 25.5024C48.6219 26.8606 48.1897 28.1871 47.3963 29.3673C46.5448 30.6317 45.3944 31.5024 43.857 31.813C42.77 32.032 41.7164 31.833 40.6982 31.4645C38.5448 30.6854 37.3266 29.1157 36.8396 26.9637C36.5031 25.475 36.5526 23.9737 36.7676 22.4766C37.2621 19.0339 38.4652 15.806 39.9123 12.655C40.1875 12.0559 40.4918 11.4716 40.7778 10.8778C40.8369 10.7536 40.8928 10.7231 41.0283 10.7936C41.9099 11.2526 42.7936 11.7074 43.6828 12.1517C43.8397 12.2307 43.8365 12.2938 43.7656 12.4297C42.4604 14.9406 41.4067 17.5474 40.6638 20.271C40.2456 21.8049 39.9349 23.3568 39.9671 24.956C39.98 25.6014 40.0714 26.2341 40.3026 26.8448C40.6961 27.8807 41.51 28.3608 42.5722 28.5598C43.2914 28.6945 43.8279 28.4219 44.2805 27.9302C44.8418 27.3196 45.131 26.5637 45.3815 25.7972C45.8492 24.3685 46.0964 22.8915 46.3254 21.4123C46.5856 19.7309 46.8469 18.0496 47.4522 16.444C47.8994 15.2586 48.5133 14.1721 49.4949 13.3235C50.684 12.296 52.0903 11.8822 53.6524 12.0096C55.979 12.1991 57.4089 13.5425 58.2744 15.5628C58.7754 16.7304 59.0076 17.9632 59.1291 19.2182C59.171 19.6509 59.1947 20.0889 59.2269 20.5258Z" fill="#C0C0C0"/>
<path d="M29.8071 14.8762C29.7674 16.7597 29.7437 18.4979 29.6899 20.235C29.6405 21.8332 29.5254 23.4282 29.3943 25.0211C29.3825 25.1622 29.3588 25.2232 29.1868 25.2064C28.2073 25.1137 27.2279 25.0295 26.2463 24.9548C26.0668 24.9411 26.0119 24.9063 26.0281 24.7126C26.227 22.428 26.3517 20.1392 26.371 17.8451C26.3839 16.3996 26.4635 14.9541 26.4323 13.5086C26.4119 12.5589 26.3323 11.6125 26.0678 10.6934C26.0302 10.5628 26.0517 10.5175 26.185 10.4786C27.1559 10.1954 28.1246 9.9069 29.0911 9.61001C29.2362 9.56579 29.29 9.61843 29.2964 9.73529C29.3136 10.0164 29.4943 10.1143 29.7415 10.1954C30.349 10.3933 30.9382 10.647 31.5811 10.7249C31.9757 10.7723 32.3702 10.7807 32.7605 10.6912C33.2669 10.5754 33.6733 10.3154 33.9786 9.89637C34.5753 9.07518 34.9355 8.15186 35.215 7.1938C35.2655 7.01903 35.3171 6.96639 35.5117 7.02009C36.4579 7.28224 37.4083 7.52649 38.3576 7.77917C38.4533 7.80443 38.5533 7.80443 38.5038 7.97183C38.1222 9.27627 37.6254 10.5281 36.8395 11.6588C35.8117 13.1369 34.3743 13.9013 32.5702 14.0445C31.6972 14.1139 30.8446 13.9971 30.0071 13.7665C29.8211 13.7149 29.7985 13.7623 29.8039 13.9265C29.8147 14.2908 29.8071 14.6561 29.8071 14.8762Z" fill="#C0C0C0"/>
<path d="M45.3509 9.33213C45.3122 9.30792 45.2735 9.28581 45.2359 9.26159C44.4005 8.72571 43.5673 8.18667 42.7276 7.65711C42.5922 7.57183 42.5674 7.51814 42.6631 7.37706C43.3888 6.30635 44.107 5.23143 44.8209 4.15335C44.908 4.02175 44.9671 4.01648 45.095 4.09966C45.9207 4.63764 46.7497 5.16931 47.584 5.69467C47.7216 5.781 47.7399 5.83574 47.6452 5.97577C46.9185 7.04542 46.2024 8.12245 45.4821 9.19632C45.4466 9.24791 45.4326 9.32055 45.3509 9.33213Z" fill="#C0C0C0"/>
<path d="M31.6317 34.4915C30.4587 32.4164 28.6589 31.2404 26.2206 31.0972C24.6423 31.0046 23.2081 31.4341 21.9835 32.4353C21.203 33.0733 20.602 33.864 20.059 34.701C19.5 35.5632 19.0248 36.4771 18.4302 37.3183C17.2519 38.9849 15.6403 39.7703 13.5717 39.506C12.2407 39.3355 11.2269 38.6585 10.6227 37.452C10.0529 36.315 9.90018 35.1137 10.0701 33.8703C10.1926 32.9765 10.498 32.1458 11 31.3836C11.4967 30.6287 11.9773 29.8644 12.4579 29.099C12.5299 28.9853 12.6063 28.9432 12.7428 28.9442C14.6737 28.9526 16.4531 28.4325 18.0754 27.4229C20.4751 25.929 21.8695 23.8139 22.0803 21.0113C22.2469 18.7888 21.5341 16.84 20.0644 15.1534C19.915 14.9829 19.9451 14.9155 20.101 14.7902C20.9998 14.0669 21.8878 13.331 22.7855 12.6067C22.9038 12.5119 22.8984 12.4551 22.8081 12.3508C22.1587 11.597 21.5126 10.8411 20.8707 10.081C20.7837 9.9778 20.7385 9.96622 20.6288 10.0568C19.5451 10.9506 18.4539 11.836 17.3712 12.7309C17.2422 12.8383 17.154 12.8436 17.0035 12.773C14.821 11.7602 12.5708 11.5539 10.3388 12.5088C7.42095 13.7553 5.72225 16.0273 4.98794 19.0278C4.91591 19.3215 4.91913 19.6289 4.81055 19.9153C4.81055 19.9448 4.81055 19.9743 4.81055 20.0027C4.84818 20.1195 4.84818 20.2364 4.81055 20.3533C4.81055 20.7923 4.81055 21.2303 4.81055 21.6693C4.86645 22.4231 5.0417 23.1516 5.32231 23.8549C5.74805 24.9204 6.34152 25.8816 7.15969 26.7091C7.66715 27.2218 8.21439 27.6798 8.85409 28.0251C8.996 28.102 9.00891 28.182 8.9229 28.303C8.81323 28.4599 8.71432 28.6231 8.61326 28.7852C8.16708 29.5012 7.6607 30.1844 7.34891 30.9751C6.75007 32.4901 6.48236 34.0504 6.62643 35.6769C6.72534 36.7961 6.98875 37.871 7.49191 38.8785C8.21009 40.3146 9.29166 41.4042 10.7624 42.1244C12.1106 42.7845 13.5395 43.0003 15.0231 42.8919C15.9897 42.8213 16.9164 42.5581 17.798 42.1612C18.7377 41.738 19.5688 41.16 20.2762 40.4241C21.0793 39.5892 21.6911 38.6185 22.2727 37.6289C22.6673 36.9572 23.0651 36.2876 23.5543 35.6759C23.8832 35.2642 24.2391 34.8821 24.7455 34.6726C26.0055 34.1525 27.429 34.5294 28.2558 35.5959C28.9643 36.5108 29.1428 37.5794 29.1428 38.6817C29.1428 39.3365 29.0342 39.9893 28.8729 40.6304C28.5912 41.7433 28.1655 42.8003 27.629 43.8173C27.4946 44.071 27.515 44.1089 27.7677 44.2426C28.1751 44.4574 28.5794 44.6774 28.9933 44.8775C29.4997 45.1228 29.9695 45.4428 30.5146 45.6113C30.5297 45.6113 30.5447 45.6113 30.5598 45.6113C30.563 45.5976 30.5641 45.5818 30.5716 45.5692C31.6747 43.4867 32.4176 41.3021 32.5434 38.9407C32.6283 37.3793 32.4111 35.8707 31.6317 34.4915ZM8.81431 23.2327C7.70586 21.0576 8.0671 19.0141 9.56152 17.1348C10.2496 16.2694 11.1075 15.6072 12.2278 15.3577C13.8083 15.006 15.2306 15.3861 16.4939 16.3431C17.3551 16.9958 18.0389 17.7981 18.4367 18.8109C18.6399 19.3278 18.7291 19.8648 18.7334 20.4143C18.7194 22.3547 17.7851 23.7612 16.1133 24.733C15.0995 25.3215 14.0018 25.6394 12.8202 25.651C10.9689 25.6689 9.6271 24.8277 8.81431 23.2327Z" fill="#C0C0C0"/>
</svg>
