<svg width="145" height="29" viewBox="0 0 145 29" fill="none" xmlns="http://www.w3.org/2000/svg">
<path d="M28.82 15.2261C26.9972 17.1992 24.9041 18.799 22.1652 19.9049C22.1652 18.9867 22.1396 18.1562 22.1885 17.3278C22.1979 17.1809 22.4916 17.0217 22.685 16.9095C25.2048 15.4648 27.0066 13.5141 28.0415 11.039C28.165 10.7431 28.172 10.333 28.0392 10.0412C26.0416 5.66642 22.375 3.10765 17.0488 2.38532C16.9626 2.37308 16.8763 2.35676 16.7481 2.33635C16.7481 1.55281 16.7481 0.777423 16.7481 0C23.3354 0.177522 31.0554 5.18486 31.5915 13.1754C32.1836 22.029 24.1162 27.8811 16.7108 28.1831C16.7108 27.4649 16.6945 26.7466 16.7295 26.0325C16.7341 25.9345 16.9905 25.7815 17.1444 25.7652C22.6873 25.1857 27.4378 21.4169 28.5893 16.4687C28.6872 16.0586 28.7454 15.6403 28.82 15.2261Z" fill="#C0C0C0"/>
<path d="M14.6894 0.000488281C14.6894 0.802348 14.6894 1.56147 14.6894 2.31855C8.23724 3.40127 4.46185 6.92416 3.44389 12.9829C5.10925 10.9823 7.09285 9.36026 9.6759 8.2633C9.6759 9.14454 9.70206 9.94029 9.65628 10.732C9.64538 10.905 9.40561 11.1105 9.21815 11.2225C6.88577 12.6267 5.23131 14.5398 4.19374 16.9372C3.99101 17.4053 3.98448 17.8205 4.19591 18.2866C6.11849 22.5238 9.49062 25.0271 14.3755 25.7312C14.4758 25.7455 14.5717 25.7821 14.6872 25.8126C14.6981 25.9836 14.7134 26.1362 14.7156 26.2909C14.7178 26.8953 14.7178 27.4998 14.7178 28.1836C11.6813 27.9516 9.01325 26.9869 6.66997 25.2733C3.36106 22.8535 1.38399 19.6766 0.904435 15.7792C-0.168021 7.06866 6.94899 0.486896 14.6894 0.000488281Z" fill="#C0C0C0"/>
<path d="M46.7942 6.44459V7.95706H51.2274V10.4568H46.7942V13.4103H43.7148V3.94482H51.8069V6.44459H46.7942Z" fill="#C0C0C0"/>
<path d="M62.8457 3.94482V9.11662C62.8457 10.503 62.4253 11.5996 61.5803 12.4062C60.7353 13.2171 59.6203 13.6204 58.2311 13.6204C56.802 13.6204 55.6561 13.2171 54.7934 12.4062C53.9307 11.5954 53.4971 10.4988 53.4971 9.11662V3.94482H56.5897V9.11662C56.5897 9.7174 56.7401 10.1837 57.0365 10.5156C57.333 10.8433 57.7311 11.0114 58.2267 11.0114C58.6912 11.0114 59.0629 10.8434 59.3372 10.5114C59.6115 10.1753 59.7442 9.7132 59.7442 9.12081V3.94902H62.8457V3.94482Z" fill="#C0C0C0"/>
<path d="M74.8403 3.94512V13.4106H72.3273L67.9826 8.84382V13.4064H64.9033V3.94092H67.434L71.7787 8.68837V3.94092H74.8403V3.94512Z" fill="#C0C0C0"/>
<path d="M76.8486 3.94482H81.1933C82.8215 3.94482 84.1311 4.38176 85.1265 5.25983C86.122 6.1379 86.622 7.27645 86.622 8.67969C86.622 10.0829 86.122 11.2215 85.1265 12.0995C84.1311 12.9776 82.817 13.4145 81.1933 13.4145H76.8486V3.94482ZM79.928 10.9778H80.9411C81.7154 10.9778 82.3348 10.7635 82.8082 10.335C83.2772 9.90647 83.5161 9.35189 83.5161 8.67548C83.5161 7.99907 83.2816 7.4445 82.8082 7.01597C82.3348 6.58744 81.7154 6.37317 80.9411 6.37317H79.928V10.9778Z" fill="#C0C0C0"/>
<path d="M98.6253 13.4064H95.338L94.8602 12.1208H91.0375L90.5597 13.4064H87.2725L91.2145 3.94092H94.6788L98.6253 13.4064ZM93.9532 9.70929L92.9577 7.01206L91.9445 9.70929H93.9532Z" fill="#C0C0C0"/>
<path d="M106.792 9.35239L109.871 9.91536C109.681 10.9237 109.212 11.7513 108.46 12.3941C107.708 13.0411 106.748 13.4276 105.589 13.5579L105.022 15.6627H101.956L103.461 13.4865C102.24 13.2302 101.24 12.663 100.461 11.7765C99.6823 10.8901 99.293 9.85655 99.293 8.66758C99.293 7.28115 99.815 6.11319 100.855 5.1553C101.894 4.1974 103.169 3.72266 104.677 3.72266C105.965 3.72266 107.097 4.05035 108.071 4.70996C109.044 5.36956 109.637 6.23923 109.858 7.32316L106.779 7.88614C106.651 7.39459 106.403 7.01647 106.044 6.74339C105.682 6.4703 105.23 6.33166 104.682 6.33166C104.036 6.33166 103.492 6.55433 103.045 7.00387C102.598 7.4492 102.377 8.00377 102.377 8.66337C102.377 9.32298 102.598 9.87755 103.045 10.3229C103.492 10.7724 104.036 10.9951 104.682 10.9951C105.217 10.9951 105.668 10.8523 106.036 10.5624C106.403 10.2893 106.655 9.88175 106.792 9.35239Z" fill="#C0C0C0"/>
<path d="M121.879 13.4064H118.592L118.114 12.1208H114.291L113.814 13.4064H110.526L114.468 3.94089H117.933L121.879 13.4064ZM115.583 2.63008C115.433 2.63008 115.327 2.65949 115.256 2.71411C115.185 2.76873 115.119 2.87796 115.048 3.03761H113.411C113.411 2.24777 113.588 1.61758 113.946 1.14283C114.305 0.672284 114.756 0.437012 115.3 0.437012C115.628 0.437012 115.964 0.521036 116.313 0.684886C116.658 0.848737 116.915 0.932764 117.07 0.932764C117.22 0.932764 117.331 0.903355 117.406 0.840335C117.481 0.777316 117.548 0.663881 117.605 0.49583H119.242C119.242 1.28567 119.065 1.91587 118.707 2.39061C118.349 2.86116 117.893 3.09643 117.34 3.09643C117.012 3.09643 116.681 3.0166 116.344 2.86536C116.008 2.70571 115.751 2.63008 115.583 2.63008ZM117.207 9.70926L116.212 7.01204L115.198 9.70926H117.207Z" fill="#C0C0C0"/>
<path d="M127.949 3.73047C129.458 3.73047 130.732 4.20941 131.78 5.1631C132.825 6.121 133.351 7.28896 133.351 8.67539C133.351 10.0576 132.829 11.2298 131.78 12.1877C130.732 13.1456 129.458 13.6203 127.949 13.6203C126.431 13.6203 125.153 13.1414 124.109 12.1877C123.069 11.2298 122.547 10.0618 122.547 8.67539C122.547 7.28896 123.069 6.121 124.109 5.1631C125.148 4.20941 126.431 3.73047 127.949 3.73047ZM126.281 10.3433C126.719 10.7844 127.272 11.0071 127.949 11.0071C128.621 11.0071 129.174 10.7844 129.608 10.3433C130.042 9.90216 130.254 9.34339 130.254 8.67539C130.254 8.00738 130.037 7.45281 129.608 7.00747C129.174 6.56634 128.621 6.34367 127.949 6.34367C127.276 6.34367 126.719 6.56634 126.281 7.00747C125.843 7.44861 125.626 8.00738 125.626 8.67539C125.626 9.34339 125.843 9.89796 126.281 10.3433Z" fill="#C0C0C0"/>
<path d="M46.7942 21.6951V23.2075H51.2274V25.7073H46.7942V28.6608H43.7148V19.1953H51.8069V21.6951H46.7942Z" fill="#C0C0C0"/>
<path d="M61.4916 26.2451V28.6608H53.457V19.1953H61.4164V21.6111H56.5364V22.842H61.0138V25.0183H56.5364V26.2493H61.4916V26.2451Z" fill="#C0C0C0"/>
<path d="M73.2915 19.1953V28.6608H70.7785L66.4338 24.0982V28.6608H63.3545V19.1953H65.8852L70.2299 23.9428V19.1953H73.2915Z" fill="#C0C0C0"/>
<path d="M80.5076 18.9855C82.0163 18.9855 83.2905 19.4644 84.339 20.4181C85.3832 21.376 85.9097 22.5439 85.9097 23.9304C85.9097 25.3126 85.3876 26.4847 84.339 27.4426C83.2905 28.4005 82.0163 28.8753 80.5076 28.8753C78.99 28.8753 77.7114 28.3963 76.6673 27.4426C75.6275 26.4847 75.1055 25.3168 75.1055 23.9304C75.1055 22.5439 75.6275 21.376 76.6673 20.4181C77.7114 19.4602 78.99 18.9855 80.5076 18.9855ZM80.0165 18.3469H77.1893L78.9458 16.0151H82.0561L83.8125 18.3469H81.0031L80.512 17.683L80.0165 18.3469ZM78.8396 25.5941C79.2776 26.0352 79.8306 26.2579 80.5076 26.2579C81.1801 26.2579 81.7331 26.0352 82.1667 25.5941C82.6003 25.1529 82.8126 24.5942 82.8126 23.9262C82.8126 23.2582 82.5958 22.7036 82.1667 22.2583C81.7331 21.8171 81.1801 21.5944 80.5076 21.5944C79.8351 21.5944 79.2776 21.8171 78.8396 22.2583C78.4016 22.6994 78.1848 23.2582 78.1848 23.9262C78.1848 24.5942 78.406 25.1529 78.8396 25.5941Z" fill="#C0C0C0"/>
<path d="M99.8022 19.1953V28.6608H96.798V24.6066L94.7584 28.6608H92.7498L90.7102 24.6066V28.6608H87.7061V19.1953H91.0553L93.7497 24.0268L96.4574 19.1953H99.8022Z" fill="#C0C0C0"/>
<path d="M109.828 26.2451V28.6608H101.793V19.1953H109.752V21.6111H104.872V22.842H109.35V25.0183H104.872V26.2493H109.828V26.2451Z" fill="#C0C0C0"/>
<path d="M121.627 19.1953V28.6608H119.114L114.77 24.0982V28.6608H111.69V19.1953H114.221L118.566 23.9428V19.1953H121.627Z" fill="#C0C0C0"/>
<path d="M128.839 18.9858C130.347 18.9858 131.622 19.4648 132.67 20.4185C133.714 21.3764 134.241 22.5443 134.241 23.9308C134.241 25.313 133.719 26.4851 132.67 27.443C131.622 28.4009 130.347 28.8757 128.839 28.8757C127.321 28.8757 126.042 28.3967 124.998 27.443C123.959 26.4851 123.437 25.3172 123.437 23.9308C123.437 22.5443 123.959 21.3764 124.998 20.4185C126.042 19.4606 127.321 18.9858 128.839 18.9858ZM127.175 25.5945C127.613 26.0356 128.166 26.2583 128.843 26.2583C129.516 26.2583 130.069 26.0356 130.502 25.5945C130.936 25.1533 131.148 24.5946 131.148 23.9266C131.148 23.2586 130.931 22.704 130.502 22.2586C130.069 21.8175 129.516 21.5948 128.843 21.5948C128.171 21.5948 127.613 21.8175 127.175 22.2586C126.737 22.6998 126.52 23.2586 126.52 23.9266C126.52 24.5946 126.737 25.1533 127.175 25.5945Z" fill="#C0C0C0"/>
<path d="M140.324 18.9858C141.532 18.9858 142.523 19.2253 143.292 19.7001C144.062 20.1748 144.536 20.8554 144.713 21.7419L141.722 22.3217C141.532 21.578 141.067 21.2041 140.324 21.2041C140.045 21.2041 139.824 21.2629 139.656 21.3806C139.488 21.4982 139.404 21.6579 139.404 21.8553C139.404 22.1368 139.567 22.3133 139.895 22.3763L141.872 22.8552C142.846 23.0905 143.571 23.4308 144.058 23.8803C144.545 24.3257 144.788 24.9265 144.788 25.6827C144.788 26.4095 144.558 27.0187 144.102 27.5187C143.646 28.0186 143.102 28.3673 142.474 28.5732C141.846 28.7748 141.173 28.8757 140.457 28.8757C139.209 28.8757 138.156 28.6068 137.302 28.0648C136.448 27.5229 135.953 26.8086 135.815 25.9264L138.939 25.376C139.147 26.1658 139.669 26.5608 140.501 26.5608C140.797 26.5608 141.045 26.5061 141.235 26.3927C141.43 26.2793 141.527 26.1196 141.527 25.9138C141.527 25.6491 141.337 25.4726 140.961 25.376L138.908 24.8971C137.063 24.4727 136.143 23.5484 136.143 22.1284C136.143 21.1285 136.537 20.3597 137.32 19.8135C138.103 19.2589 139.107 18.9858 140.324 18.9858Z" fill="#C0C0C0"/>
</svg>
